<svg width="45" height="31" viewBox="0 0 45 31" fill="none" xmlns="http://www.w3.org/2000/svg">
<path d="M45 1.54472V29.2535C45 30.0425 44.3514 30.6911 43.5624 30.6911H1.43754C0.648545 30.6911 0 30.0425 0 29.2535V1.54472C0 0.755723 0.648545 0.11377 1.43754 0.11377H43.5624C44.3514 0.11377 45 0.755723 45 1.54472Z" fill="url(#paint0_linear_169_2105)"/>
<g opacity="0.2">
<path d="M26.3121 9.19044C26.2148 9.08102 26.1541 8.98381 26.0325 9.03848C25.911 9.09314 25.911 9.17216 25.7833 9.07495C25.6556 8.97774 25.7103 8.86217 25.4246 8.7589C25.1389 8.65554 25.0781 8.5948 24.768 8.55226C24.4581 8.50973 24.2331 8.46719 24.2149 8.46719C24.1967 8.46719 24.2817 8.52185 24.1602 8.58268C24.0386 8.6435 23.9413 8.65562 23.8198 8.57661C23.6982 8.4976 23.7043 8.47325 23.4977 8.49153C23.291 8.50981 23.1694 8.55842 23.0783 8.57055C22.9871 8.58268 23.0783 8.56448 22.9384 8.46719C22.7986 8.36989 22.8959 8.31522 22.6527 8.33342C22.4096 8.3517 22.3062 8.36295 22.2454 8.3299C22.1846 8.29694 22.2575 8.1267 22.0205 8.05375C21.7835 7.9808 21.7348 8.03556 21.6132 8.01727C21.4917 7.99908 21.4977 7.96867 21.1513 7.94433C20.8048 7.91998 20.823 7.97474 20.5859 8.04768C20.3489 8.12063 20.2881 8.12063 20.0692 8.1085C19.8504 8.09638 19.9051 8.23006 19.7714 8.24834C19.6376 8.26653 19.4249 8.13285 19.4006 8.05384C19.3762 7.97482 19.5829 7.88974 19.4006 7.8168C19.2182 7.74385 18.8778 7.60401 18.8109 7.62836C18.744 7.6527 18.7805 7.76213 18.6589 7.79245C18.5374 7.82286 18.3794 7.82286 18.1909 7.73778C18.0025 7.6527 17.9295 7.6106 17.729 7.62555C17.5284 7.64049 17.419 7.70131 17.2487 7.71344C17.0785 7.72557 16.9752 7.65262 17.0907 7.59795C17.2062 7.54328 17.3521 7.3791 17.3521 7.30009C17.3521 7.22107 17.4372 7.05083 17.2427 7.03264C17.0482 7.01444 17.0117 7.14812 16.8293 7.03264C16.6469 6.91715 16.4099 6.91108 16.343 6.94756C16.2761 6.98403 16.2761 7.04485 16.1606 7.06305C16.0452 7.08124 16.0877 7.1846 15.9479 7.22107C15.808 7.25755 15.8263 7.14812 15.5041 7.17853C15.1819 7.20894 14.8719 7.25148 14.7929 7.34263C14.7139 7.43377 14.8112 7.53713 14.6409 7.61614C14.4707 7.69516 14.0817 7.63434 14.0331 7.70122C13.9845 7.7681 14.2459 7.99908 14.0696 8.10244C13.8932 8.2058 13.7838 8.02949 13.3766 8.10244C12.9693 8.17539 13.0179 8.16326 12.8661 8.2544C12.7141 8.34555 12.6837 8.28481 12.5926 8.41243C12.5014 8.54005 12.2278 8.65562 12.0394 8.65562C11.8509 8.65562 11.7719 8.54014 11.5287 8.63743C11.2856 8.73473 11.3221 8.80152 10.9391 8.7712C10.5561 8.74079 10.3981 8.74685 10.3252 8.79555C10.2522 8.84415 10.2522 8.96579 10.0638 9.02046C9.87533 9.07513 9.58353 9.17242 9.51058 9.15423C9.43763 9.13603 9.18846 9.25759 9.01822 9.27578C8.84797 9.29406 8.75077 9.28185 8.6961 9.21496C8.64134 9.14808 8.58061 9.03259 8.66569 9.06906C8.75077 9.10554 8.82372 9.15414 8.97568 9.14808C9.12764 9.14201 9.29789 9.02046 9.26141 8.95357C9.22494 8.88669 9.25535 8.78948 8.95749 8.71653C8.65962 8.64358 8.53201 8.65571 8.30709 8.49162C8.08218 8.32753 8.39217 8.2181 7.8026 8.27884C7.21294 8.33966 7.05492 8.40039 6.81788 8.5767C6.58083 8.75301 6.53214 8.90497 6.28904 9.11767C6.04593 9.33045 6.13101 9.39118 5.82708 9.54314C5.52316 9.69511 5.47456 9.62216 5.38332 9.85313C5.29209 10.0841 5.23136 10.3516 5.4198 10.4003C5.60824 10.4489 5.80274 10.3638 5.90003 10.3273C5.99733 10.2908 6.07028 10.3577 6.08241 10.4671C6.09454 10.5766 6.1006 10.7589 6.22224 10.7832C6.34379 10.8075 6.59912 10.6373 6.58699 10.4611C6.57486 10.2848 6.53232 10.1632 6.65387 9.9869C6.77542 9.8106 6.85444 9.68298 6.98214 9.62216C7.10976 9.56134 7.28607 9.452 7.21918 9.59175C7.1523 9.73158 7.03075 9.89567 7.11582 10.0355C7.2009 10.1753 7.3954 10.078 7.4441 10.2179C7.4927 10.3577 7.37721 10.4914 7.3468 10.5401C7.31639 10.5887 7.41975 10.6495 7.27992 10.7468C7.14008 10.844 7.04894 10.9474 6.89698 11.0629C6.74501 11.1783 6.29519 11.2574 6.19183 11.2331C6.08847 11.2088 5.91831 11.2331 5.9061 11.0933C5.89397 10.9534 6.05806 10.8015 5.8879 10.7346C5.71766 10.6677 5.52922 10.7589 5.47456 10.996C5.4198 11.233 5.33472 11.2756 5.19498 11.391C5.05514 11.5065 5.17063 11.8591 4.76343 11.9259C4.35615 11.9928 4.12517 11.8955 4.15558 12.0414C4.18599 12.1873 4.44131 12.0961 4.44738 12.3393C4.45344 12.5824 4.51426 12.6676 4.33795 12.7162C4.16165 12.7648 4.11911 12.6736 3.88206 12.7526C3.64502 12.8317 3.65715 13.1295 3.60855 13.2571C3.55995 13.3848 3.5356 13.5002 3.69363 13.555C3.85165 13.6097 4.10698 13.707 4.29541 13.6279C4.48385 13.5489 4.59328 13.5368 4.61762 13.3909C4.64197 13.245 4.7027 13.1539 4.8304 13.1295C4.95802 13.1052 5.04319 12.9593 5.11605 12.8742C5.189 12.7891 5.11605 12.8195 5.30449 12.8256C5.49292 12.8317 5.66923 12.6311 5.73603 12.6858C5.80291 12.7404 6.00348 12.856 6.1311 12.9776C6.25872 13.0991 6.43502 13.1356 6.40461 13.318C6.3742 13.5003 6.36207 13.7118 6.48363 13.6577C6.60518 13.6037 6.56264 13.4395 6.64165 13.3605C6.72067 13.2815 6.82403 13.3544 6.8119 13.2146C6.79977 13.0748 6.59305 13.0383 6.48363 12.9107C6.3742 12.7831 6.28913 12.6432 6.42281 12.6858C6.55649 12.7283 6.81181 12.8438 6.83616 12.9411C6.8605 13.0384 7.08541 13.2389 7.10967 13.4274C7.13402 13.6158 7.2677 13.7861 7.32852 13.6888C7.38934 13.5915 7.33458 13.5185 7.46835 13.4943C7.60204 13.4699 7.55343 13.3727 7.62638 13.245C7.69933 13.1174 7.8999 13.3058 7.97285 13.0687C8.0458 12.8317 7.8817 12.75 8.06399 12.6206C8.24636 12.4913 8.32538 12.4062 8.38004 12.5217C8.43471 12.6372 8.57455 12.7587 8.64143 12.6372C8.70832 12.5156 8.51988 12.4791 8.67791 12.3879C8.83593 12.2968 8.97577 12.1873 8.93323 12.3454C8.89069 12.5034 8.82987 12.6067 8.93929 12.7162C9.04872 12.8256 9.37083 12.8925 9.19461 12.9897C9.01831 13.087 8.76307 13.0322 8.52594 13.1356C8.2889 13.2389 8.25243 13.1903 8.19161 13.3848C8.13079 13.5793 8.12472 13.6402 8.32529 13.6402C8.52585 13.6402 8.61708 13.5003 8.67175 13.6766C8.72642 13.8529 8.71429 14.248 8.62921 14.2845C8.54414 14.321 8.50766 14.2663 8.13079 14.3088C7.75391 14.3514 7.7721 14.4426 7.46818 14.2906C7.16425 14.1386 7.0913 13.9502 6.98188 14.1386C6.87246 14.327 6.95147 14.4229 6.71443 14.375C6.47739 14.327 6.64754 14.2238 6.33149 14.1447C6.01543 14.0657 5.95461 14.0901 5.95461 13.9502C5.95461 13.8104 5.99715 13.628 5.7479 13.6098C5.49864 13.5916 5.06103 13.6949 4.70235 13.7983C4.34367 13.9016 4.41662 13.7739 4.00327 13.9198C3.58992 14.0657 3.33459 14.1143 3.29206 14.3392C3.24952 14.5642 3.10968 14.6918 3.01854 14.8134C2.9274 14.935 2.87871 15.47 2.85445 15.7981C2.8301 16.1264 2.91527 15.9745 2.82404 16.2176C2.73281 16.4608 2.98813 16.8437 3.09149 16.947C3.19485 17.0503 3.52918 17.3785 3.74188 17.4029C3.95466 17.4272 3.93638 17.3238 4.26465 17.3724C4.59292 17.421 4.58686 17.2326 4.9212 17.3178C5.25553 17.4029 5.37708 17.4637 5.57159 17.567C5.76609 17.6704 5.78437 17.7555 5.78437 18.0047C5.78437 18.254 5.7965 18.0655 5.97281 18.4181C6.14912 18.7706 6.45911 19.0989 6.27673 19.4028C6.09436 19.7067 6.01535 19.7614 6.13083 20.0471C6.24632 20.3329 6.56853 20.9103 6.605 21.2021C6.64148 21.4939 6.55034 21.5121 6.58681 21.6884C6.62329 21.8647 6.95156 22.0592 7.24942 21.9377C7.54728 21.8161 7.63842 21.81 7.88162 21.5851C8.12472 21.3602 8.36791 21.5305 8.55029 21.0624C8.73266 20.5943 8.67184 20.5396 8.75085 20.3511C8.82987 20.1627 9.30404 19.8892 9.32223 19.5488C9.34042 19.2084 9.21887 18.9531 9.26141 18.6249C9.30395 18.2966 9.33436 18.011 9.65042 17.7496C9.96647 17.4882 10.0394 17.7435 10.2583 17.2512C10.4771 16.7588 10.7385 16.6372 10.4953 16.6433C10.2521 16.6494 9.77803 16.8439 9.57747 16.7344C9.3769 16.625 9.04863 16.1266 8.98174 15.8956C8.91486 15.6646 8.9392 15.7801 8.82372 15.4519C8.70823 15.1236 8.5988 14.9534 8.5502 14.8257C8.5016 14.6981 8.47119 14.4732 8.61708 14.6556C8.76298 14.8379 8.90282 15.1115 9.09732 15.5309C9.29182 15.9503 9.40731 16.2725 9.57755 16.3394C9.7478 16.4063 9.80247 16.4853 10.0578 16.3819C10.3131 16.2786 10.4043 16.2664 10.6474 16.1327C10.8906 15.9989 11.0364 15.9746 11.2128 15.7983C11.3891 15.622 11.7902 15.5491 11.3465 15.3789C10.9028 15.2088 10.7508 15.306 10.6232 15.1115C10.4956 14.917 10.2889 14.7225 10.4773 14.7529C10.6657 14.7833 10.5928 14.8379 10.8056 14.8805C11.0183 14.923 11.1703 14.8272 11.2858 14.9815C11.4013 15.1358 11.5958 15.2452 11.7782 15.1601C11.9605 15.075 12.0335 15.0264 12.228 15.1357C12.4225 15.2451 12.2949 15.5551 12.5867 15.6402C12.8785 15.7253 12.9271 15.4092 12.9879 15.8104C13.0487 16.2117 13.1642 16.5824 13.2675 16.6615C13.3708 16.7405 13.2128 17.1053 13.541 17.008C13.8693 16.9107 13.9665 16.9229 13.9665 16.5825C13.9665 16.2421 13.9543 16.157 14.1306 16.0354C14.3069 15.9138 14.55 15.7923 14.6594 15.6646C14.7688 15.5369 14.7019 15.4578 14.9208 15.4822C15.1396 15.5065 15.6806 16.1144 15.6562 16.242C15.6319 16.3696 15.6076 16.4183 15.7109 16.4973C15.8143 16.5763 15.8082 16.6007 15.8872 16.8863C15.9662 17.1721 15.948 17.1294 16.1972 17.397C16.4465 17.6644 16.799 17.8529 16.7686 17.6583C16.7382 17.4638 16.6166 17.4881 16.5072 17.1781C16.3978 16.8681 16.2702 16.5885 16.4161 16.6676C16.562 16.7466 16.5194 16.8621 16.6714 16.8864C16.8233 16.9108 16.8477 16.7344 16.9632 16.6797C17.0787 16.625 17.2854 16.1813 17.1212 15.9868C16.9571 15.7923 16.7869 15.6585 16.9571 15.5978C17.1274 15.5369 17.0483 15.5796 17.2489 15.6159C17.4495 15.6524 17.3887 15.5551 17.6318 15.4883C17.875 15.4214 18.2276 15.312 18.416 15.0689C18.6044 14.8258 18.8111 14.7529 18.7564 14.4307C18.7017 14.1085 18.6288 13.9687 18.5133 13.8835C18.3978 13.7985 18.3918 13.7376 18.495 13.7012C18.5984 13.6647 18.8658 13.6586 18.7139 13.5796C18.5619 13.5006 18.6349 13.5431 18.4585 13.5006C18.2822 13.4581 18.0938 13.5431 18.2518 13.3972C18.4099 13.2513 18.5314 13.1298 18.5314 13.1298C18.5314 13.1298 18.4889 13.1602 18.5922 13.2696C18.6956 13.379 18.7625 13.3304 18.8111 13.3061C18.8597 13.2817 19.0056 13.1785 19.0239 13.294C19.0421 13.4095 18.8354 13.4945 18.957 13.5371C19.0785 13.5796 19.188 13.4702 19.1393 13.689C19.0907 13.9079 19.188 14.1084 19.2913 13.999C19.3947 13.8896 19.5466 13.5675 19.5162 13.4337C19.4858 13.3 19.3825 13.3668 19.5223 13.1237C19.6621 12.8806 19.6621 12.7104 19.8506 12.7408C20.039 12.7712 20.2214 12.5888 20.2943 12.5159C20.3673 12.4429 20.6773 12.2727 20.7259 12.066C20.7745 11.8593 20.7502 11.829 20.817 11.5919C20.8839 11.3548 21.0298 11.3548 20.8474 11.2454C20.665 11.136 20.5252 11.1603 20.4949 11.0387C20.4645 10.9171 20.9812 10.3275 21.2061 10.2363C21.431 10.1452 21.589 10.1877 21.741 10.2545C21.893 10.3214 21.9416 10.3882 22.0814 10.3031C22.2212 10.2181 22.3124 10.1694 22.3914 10.1633C22.4704 10.1572 22.6893 9.99306 22.7804 10.066C22.8715 10.139 22.8838 10.218 22.9932 10.1694C23.1026 10.1208 23.2485 9.86544 23.2971 9.95658C23.3457 10.0477 23.3336 10.1571 23.1998 10.3335C23.066 10.5098 22.9506 10.5402 22.7804 10.6799C22.6102 10.8198 22.5434 10.9657 22.5434 11.0933C22.5434 11.2209 22.4948 11.6465 22.5615 11.6525C22.6284 11.6586 22.6466 11.6404 22.8229 11.4155C22.9992 11.1906 23.0904 11.1784 23.2059 11.0933C23.3214 11.0082 23.3639 10.9048 23.3822 10.7043C23.4005 10.5037 23.2728 10.455 23.4612 10.3517C23.6496 10.2484 23.8745 10.139 24.063 10.1694C24.2514 10.1998 24.2089 10.1937 24.3487 10.0539C24.4885 9.91404 24.5858 9.8229 24.7317 9.83503C24.8776 9.84716 25.1146 9.87757 25.1511 9.80462C25.1875 9.73167 25.1571 9.67094 25.1632 9.56758C25.1693 9.46422 25.1571 9.42168 25.297 9.3852C25.4368 9.34873 25.4307 9.30013 25.4975 9.27578C25.5644 9.25144 25.607 9.32438 25.7164 9.36692C25.8258 9.40946 26.0933 9.41553 26.1541 9.33651C26.2148 9.25732 26.3121 9.19044 26.3121 9.19044Z" fill="#9FA6A9"/>
<path d="M20.975 12.4972C21.0544 12.5265 21.2059 12.6492 21.2972 12.6431C21.3883 12.6371 21.437 12.7586 21.364 12.7708C21.2911 12.7829 21.048 12.8984 21.048 12.8984C21.048 12.8984 20.975 12.8072 20.9325 12.8984C20.89 12.9895 20.8656 13.0564 20.8778 13.1112C20.89 13.1658 20.9751 13.3239 20.9264 13.403C20.8778 13.482 20.811 13.5245 20.811 13.6218C20.811 13.719 20.8718 13.8224 20.7866 13.8649C20.7015 13.9074 20.6164 13.9197 20.5435 13.9439C20.4706 13.9683 20.4159 13.9743 20.3855 14.0412C20.3551 14.1081 20.2821 14.2053 20.1302 14.1992C19.9782 14.1932 19.9782 14.0716 19.8384 14.1871C19.6985 14.3026 19.6925 14.3695 19.6195 14.3391C19.5466 14.3087 19.6012 14.2661 19.6195 14.1506C19.6377 14.0352 19.3702 14.0656 19.6134 13.9318C19.8565 13.798 19.8565 13.7798 20.0207 13.7555C20.1848 13.7311 20.2761 13.8102 20.3428 13.6704C20.4097 13.5306 20.3428 13.4759 20.4766 13.4698C20.6104 13.4638 20.6955 13.5246 20.7197 13.3725C20.7441 13.2206 20.7258 13.093 20.7197 12.9957C20.7137 12.8984 20.6772 12.8072 20.7866 12.7708C20.896 12.7343 20.9082 12.8012 20.9204 12.7161C20.9324 12.6309 20.8595 12.4547 20.975 12.4972Z" fill="#9FA6A9"/>
<path d="M18.5318 15.792C18.6473 15.8103 18.7019 16.0169 18.6656 16.102C18.6291 16.1871 18.5926 16.2844 18.696 16.3025C18.7993 16.3208 18.8723 16.333 18.8723 16.4059C18.8723 16.4789 18.9148 16.3269 18.9938 16.5214C19.0728 16.7159 18.9999 16.7463 19.0911 16.8922C19.1823 17.0381 19.2917 17.1111 19.1641 17.184C19.0364 17.257 19.1337 17.336 19 17.2934C18.8663 17.2509 18.921 17.2751 18.8541 17.1475C18.7872 17.0199 18.7447 17.1232 18.6839 17.1171C18.6231 17.1111 18.6049 17.1111 18.6535 17.026C18.7021 16.9409 18.7265 16.947 18.6718 16.8497C18.6171 16.7524 18.7022 16.6369 18.6232 16.6187C18.5442 16.6005 18.5198 16.7342 18.3801 16.8193C18.2402 16.9043 18.0336 16.9287 18.0397 16.8983C18.0457 16.8679 18.1248 16.8253 18.2525 16.6673C18.3801 16.5093 18.4592 16.6065 18.4348 16.3634C18.4105 16.1203 18.3254 16.1871 18.4044 16.0169C18.4832 15.8467 18.5318 15.792 18.5318 15.792Z" fill="#9FA6A9"/>
<path d="M18.1424 17.1715C18.2344 17.2635 18.3551 17.2384 18.3187 17.3296C18.2822 17.4207 18.1739 17.4329 18.2341 17.5241C18.2943 17.6153 18.3491 17.749 18.4281 17.7368C18.5071 17.7247 18.501 17.6639 18.6955 17.6639C18.89 17.6639 19.0116 17.6213 19.0238 17.7004C19.0359 17.7794 18.9387 17.7854 18.811 17.9009C18.6834 18.0164 18.5557 18.1319 18.6591 18.2049C18.7624 18.2778 18.805 18.4116 18.7685 18.4602C18.732 18.5088 18.6955 18.5575 18.7806 18.6182C18.8657 18.679 19.273 18.6607 19.1757 18.8066C19.0784 18.9525 18.8414 19.0316 18.5921 19.0376C18.3428 19.0437 18.5432 18.9707 18.0388 18.9221C17.5344 18.8735 17.4493 19.0011 17.0968 18.831C16.7443 18.6607 16.5132 18.8066 16.3187 18.4966C16.1242 18.1867 16.2032 18.3386 15.96 18.0164C15.7169 17.6943 15.8324 17.6943 15.6257 17.5666C15.419 17.439 15.2428 17.2566 15.3826 17.2566C15.5224 17.2566 15.4555 17.0925 15.8871 17.4511C16.3186 17.8097 16.2031 17.7915 16.5193 18.0043C16.8353 18.2171 16.9387 18.2413 17.0542 18.2171C17.1697 18.1927 17.3399 18.2171 17.2305 18.0772C17.1211 17.9374 17.0603 17.7612 17.1515 17.7308C17.2427 17.7004 17.2366 17.8523 17.3885 17.6882C17.5405 17.5241 17.5405 17.4815 17.6743 17.4268C17.808 17.3722 17.7351 17.4268 17.8627 17.3478C17.9904 17.2688 18.039 17.0682 18.1424 17.1715Z" fill="#9FA6A9"/>
<path d="M19.8142 17.8769C19.8803 17.9619 19.9905 18.0714 20.0391 18.1626C20.0877 18.2538 20.179 18.0854 20.3552 18.0905C20.5315 18.0957 20.7929 18.1929 20.9023 18.2416C21.0117 18.2903 21.2002 18.3206 21.3156 18.4787C21.4311 18.6367 21.5162 18.5455 21.5224 18.7036C21.5284 18.8616 21.5528 18.8434 21.656 18.9345C21.7594 19.0257 21.7776 19.1959 21.5952 19.123C21.4129 19.05 21.3582 18.8009 21.1637 18.8251C20.9692 18.8495 21.0482 18.9041 20.8962 18.9345C20.7443 18.965 20.6774 18.9102 20.495 18.8981C20.3126 18.8859 20.179 18.9467 20.264 18.7826C20.3491 18.6185 20.4099 18.6124 20.1121 18.4908C19.8142 18.3692 19.6987 18.43 19.6987 18.3023C19.6987 18.1747 19.7473 18.1625 19.6318 18.0531C19.5163 17.9437 19.4799 17.8646 19.5528 17.8099C19.6258 17.7552 19.7717 17.8221 19.8142 17.8769Z" fill="#9FA6A9"/>
<path d="M20.1669 19.6273C20.3674 19.7307 20.4464 19.9373 20.5437 19.9008C20.641 19.8644 20.6046 19.8036 20.6774 19.5848C20.7504 19.3659 20.7564 19.141 20.8477 19.2323C20.9388 19.3234 20.8537 19.5014 20.9996 19.5583C21.1455 19.6152 21.1759 19.6578 21.2063 19.828C21.2368 19.9982 21.2672 19.9435 21.4191 20.1198C21.5711 20.2961 21.7076 20.2657 21.7335 20.4662C21.7595 20.6668 22.0149 20.8735 22.027 21.0802C22.0391 21.2869 22.0756 21.4327 21.9236 21.6941C21.7717 21.9555 21.7108 22.0891 21.6622 22.1987C21.6136 22.3081 21.4677 22.3628 21.3097 22.3628C21.1517 22.3628 21.0604 22.2959 20.9632 22.3202C20.8659 22.3446 20.7991 22.4661 20.6837 22.381C20.5682 22.296 20.5013 22.1865 20.4648 22.1196C20.4283 22.0528 20.4101 21.8279 20.2399 21.8522C20.0697 21.8765 20.094 21.9616 19.9906 21.8522C19.8873 21.7428 19.9602 21.6516 19.6563 21.6029C19.3524 21.5543 19.2734 21.53 19.1457 21.5604C19.018 21.5908 18.8843 21.6333 18.7444 21.7428C18.6046 21.8522 18.3858 21.7975 18.2642 21.8522C18.1427 21.9069 17.9603 22.0285 17.8265 21.9556C17.6927 21.8826 17.7414 21.8461 17.7475 21.676C17.7536 21.5057 17.7414 21.6213 17.6564 21.3295C17.5713 21.0377 17.6078 21.0803 17.5287 20.9405C17.4497 20.8007 17.3889 20.8676 17.4983 20.667C17.6078 20.4664 17.5713 20.4239 17.632 20.357C17.6928 20.2901 17.7475 20.3753 17.9542 20.2354C18.1609 20.0956 18.2217 20.1564 18.4101 20.0835C18.5985 20.0105 18.6411 19.731 18.7566 19.6458C18.8721 19.5607 18.9025 19.4938 18.9875 19.4938C19.0726 19.4938 19.1699 19.5424 19.3219 19.6033C19.4738 19.6641 19.4434 19.6701 19.5711 19.5303C19.6988 19.3905 19.5711 19.2568 19.8021 19.281C20.0331 19.3054 20.1182 19.2689 20.1486 19.4026C20.179 19.5362 20.1669 19.6273 20.1669 19.6273Z" fill="#9FA6A9"/>
<path d="M24.3853 22.4968C24.5069 22.3387 24.5677 22.3205 24.5252 22.1381C24.4826 21.9557 24.4948 21.8127 24.6528 21.9754C24.8108 22.1381 24.9871 22.2293 25.1087 22.2354C25.2302 22.2414 25.522 22.3327 25.2242 22.5576C24.9263 22.7825 24.9811 22.6245 24.7439 22.9588C24.5069 23.2931 24.6893 23.2992 24.4035 23.4633C24.1178 23.6274 23.8018 23.7003 23.8626 23.5545C23.9234 23.4086 23.893 23.4086 24.1544 23.2141C24.4158 23.0196 24.5859 22.8737 24.5859 22.7096C24.5859 22.5455 24.3853 22.4968 24.3853 22.4968Z" fill="#9FA6A9"/>
<path d="M9.86928 20.8552C9.75986 20.6972 9.75985 20.6485 9.74773 20.3932C9.7356 20.1379 9.65043 20.0164 9.74773 19.8705C9.84502 19.7246 10.1003 19.4815 10.1976 19.3112C10.2948 19.1411 10.3191 18.7763 10.3799 19.1045C10.4407 19.4328 10.6352 19.6273 10.3434 20.065C10.0517 20.5026 9.86928 20.8552 9.86928 20.8552Z" fill="#9FA6A9"/>
<path d="M4.02184 11.8103C3.99749 11.7617 4.10692 11.6036 4.10692 11.6036C4.10692 11.6036 4.24069 11.5307 4.20421 11.2632C4.16774 10.9957 4.14339 11.1538 4.04619 10.8985C3.94889 10.6431 3.80308 10.6917 3.94889 10.5216C4.09479 10.3513 4.26495 10.0961 4.30142 10.3027C4.33789 10.5094 4.25282 10.6431 4.33789 10.7404C4.42297 10.8377 4.59322 10.8578 4.69042 11.0179C4.78772 11.178 5.17672 11.2389 4.88493 11.4455C4.59313 11.6522 4.45945 11.5184 4.35002 11.6643C4.2406 11.8103 4.02184 11.8103 4.02184 11.8103Z" fill="#9FA6A9"/>
<path d="M3.63295 11.6159C3.82745 11.5065 3.89855 11.5308 3.8873 11.3362C3.87605 11.1417 4.00982 10.9715 3.8031 10.9593C3.59647 10.9472 3.53565 11.0688 3.51131 11.1538C3.48696 11.2389 3.48696 11.2633 3.54778 11.3483C3.6086 11.4334 3.62073 11.5551 3.59638 11.6158C3.57221 11.6767 3.63295 11.6159 3.63295 11.6159Z" fill="#9FA6A9"/>
<path d="M2.9276 9.71919C3.08563 9.60977 3.34095 9.70706 3.35308 9.476C3.36521 9.24502 3.42603 9.1842 3.0735 9.15994C2.72097 9.1356 2.72097 9.1356 2.50212 9.15994C2.28328 9.18429 2.07665 8.96544 2.2468 9.29371C2.41696 9.62198 2.4413 9.69493 2.57507 9.71919C2.70884 9.74345 2.9276 9.71919 2.9276 9.71919Z" fill="#9FA6A9"/>
<path d="M27.4004 8.84378C27.2107 8.62687 26.902 8.6128 27.1451 8.47903C27.3882 8.34535 27.5341 8.26019 27.7652 8.21158C27.9962 8.16298 28.2394 8.26019 28.6162 8.35748C28.9931 8.45478 29.601 8.36961 29.8806 8.45478C30.1602 8.53985 30.294 8.7101 30.3791 8.69788C30.4641 8.68575 30.7073 8.43043 30.9504 8.43043C31.1935 8.43043 31.3152 8.39396 31.8136 8.45478C32.312 8.5156 32.7983 8.53985 32.8105 8.66149C32.8226 8.78305 32.8226 8.84387 33.005 8.84387C33.1873 8.84387 33.3454 8.73444 33.4548 8.90469C33.5642 9.07493 33.7344 9.19648 33.7101 9.06271C33.6858 8.92903 33.5642 8.81961 33.6615 8.77092C33.7588 8.72231 34.0384 8.69797 34.1113 8.72231C34.1843 8.74666 34.4153 8.78313 34.4882 8.77092C34.5611 8.75879 34.5125 8.63715 34.7557 8.7101C34.9988 8.78305 35.0352 8.96542 35.0839 8.97755C35.1325 8.98968 35.2419 8.79061 35.2541 8.65921C35.2662 8.52772 35.3756 8.52772 35.1569 8.35757C34.938 8.18732 35.1357 7.98069 35.2921 8.05364C35.4486 8.12659 35.3514 8.22389 35.5094 8.38191C35.6674 8.53994 35.6918 8.67371 35.8012 8.62502C35.9106 8.57642 35.8498 8.3697 35.9957 8.52772C36.1416 8.68575 36.1781 8.60612 36.3118 8.57905C36.4455 8.55198 36.3361 8.4669 36.4941 8.55198C36.6522 8.63706 36.9196 8.73436 36.7251 8.89238C36.5306 9.05041 36.2388 9.02615 36.0322 9.14771C35.8255 9.26926 35.8863 9.23278 35.8255 9.37868C35.7646 9.52458 35.789 9.53671 35.5459 9.59753C35.3027 9.65835 35.2298 9.60966 35.2419 9.81638C35.2541 10.0231 35.2298 10.0474 35.1447 10.1568C35.0596 10.2662 35.1082 10.3635 35.2055 10.4121C35.3028 10.4607 35.4121 10.3756 35.4121 10.5215C35.4121 10.6674 35.5945 10.7768 35.8376 10.7768C36.0807 10.7768 36.1901 10.8377 36.336 11.02C36.4819 11.2023 36.2752 11.2145 36.5184 11.4454C36.7615 11.6764 36.9926 11.7858 37.029 11.5792C37.0655 11.3726 37.029 11.3239 37.0655 11.0808C37.102 10.8377 37.333 10.8133 37.2114 10.5945C37.0899 10.3756 36.9075 10.2784 37.0776 10.1568C37.2479 10.0352 37.0412 9.9229 37.333 9.86357C37.6248 9.80425 37.8193 9.75556 37.9408 9.9744C38.0624 10.1933 37.9287 10.3392 38.0502 10.4364C38.1718 10.5337 38.5487 10.3878 38.6216 10.3027C38.6946 10.2176 38.9012 10.2297 38.9741 10.5458C39.0471 10.8618 39.0957 10.947 39.2051 10.9835C39.3145 11.02 39.3145 11.0929 39.4483 11.2145C39.582 11.336 39.8373 11.5305 39.4483 11.567C39.0593 11.6035 38.7432 11.5549 38.5973 11.6885C38.4514 11.8222 38.4392 11.725 38.5364 11.9074C38.6337 12.0898 38.5608 11.9682 38.6337 12.1992C38.7067 12.4302 39.0714 12.4302 38.8039 12.5882C38.5364 12.7462 38.585 12.7827 38.427 12.7341C38.269 12.6855 38.2325 12.3364 38.0501 12.6204C37.8678 12.9043 37.8921 13.0137 37.7341 13.0988C37.5761 13.1839 37.5638 13.0137 37.418 13.2812C37.2721 13.5487 37.5031 13.573 37.1749 13.8769C36.8467 14.1808 36.6886 14.035 36.6643 14.2903C36.6399 14.5456 36.7981 14.8495 36.7129 14.9103C36.6278 14.9712 36.6399 14.9589 36.5427 14.7888C36.4454 14.6185 36.4941 14.5213 36.1537 14.497C35.8133 14.4726 35.8377 14.3876 35.7039 14.5335C35.5701 14.6794 35.7525 14.728 35.3756 14.6794C34.9988 14.6308 34.9502 14.1809 34.8772 14.7037C34.8043 15.2265 34.7921 15.2872 34.9137 15.4331C35.0352 15.579 35.3635 15.9315 35.5094 15.7735C35.6553 15.6155 35.4729 15.421 35.7526 15.4817C36.0322 15.5425 36.1051 15.4696 36.0565 15.6276C36.0079 15.7856 35.631 15.81 35.935 15.9559C36.2389 16.1018 36.4942 15.9315 36.5185 16.1626C36.5428 16.3936 36.482 16.4544 36.4941 16.5881C36.5063 16.7218 36.5671 16.8191 36.8467 16.8191C37.1262 16.8191 37.1141 16.7096 37.1871 16.8555C37.26 17.0014 37.491 16.9285 37.5883 16.7218C37.6856 16.515 37.7585 16.2841 37.9043 16.5273C38.0502 16.7704 38.0745 16.8191 38.2204 16.7218C38.3663 16.6245 38.3663 16.6245 38.3663 16.6245C38.3663 16.6245 38.5243 16.4786 38.6581 16.6001C38.7919 16.7217 39.0106 16.588 39.0593 16.7582C39.1079 16.9283 39.035 16.9527 39.2417 17.0135C39.4484 17.0743 39.6915 16.977 39.8131 17.1472C39.9346 17.3174 39.6063 17.208 39.959 17.4146C40.3115 17.6213 40.4209 17.6456 40.3966 17.7794C40.3723 17.9131 40.4696 17.9374 40.7857 18.0103C41.1017 18.0833 41.0531 18.0468 41.3084 18.2413C41.5637 18.4358 41.7704 18.3507 41.8555 18.448C41.9406 18.5453 42.0865 18.5696 41.965 18.837C41.8434 19.1045 41.7219 19.0437 41.6246 19.2504C41.5273 19.4571 41.4422 19.5057 41.4665 19.8704C41.4909 20.2352 41.503 20.1987 41.4301 20.3811C41.3571 20.5635 41.0897 20.5877 40.8708 20.7215C40.652 20.8553 40.6398 20.7458 40.4939 21.1105C40.348 21.4752 40.4331 21.2807 40.3116 21.5968C40.19 21.9129 40.3602 21.7548 40.0076 21.9372C39.6551 22.1196 39.5213 21.9615 39.4849 22.071C39.4484 22.1804 39.6916 22.0953 39.4363 22.3263C39.1809 22.5573 39.0715 22.6181 38.9135 22.7153C38.7555 22.8125 38.6582 22.922 38.6946 23.1286C38.7311 23.3353 38.9135 23.3231 38.7068 23.5176C38.5001 23.7121 38.415 23.5176 38.3542 23.8337C38.2934 24.1498 38.2327 24.0039 38.2934 24.3321C38.3542 24.6604 38.6703 24.6604 38.3785 24.8428C38.0867 25.0251 37.7707 25.1102 37.5883 24.6726C37.4059 24.2349 37.4059 24.0648 37.4059 23.773C37.4059 23.4812 37.3694 23.7 37.5153 23.2016C37.6612 22.7032 37.418 22.8733 37.5397 22.3263C37.6612 21.7792 37.637 21.1957 37.7585 20.7944C37.8801 20.3932 38.1475 20.5026 37.8801 20.138C37.6126 19.7732 37.564 19.8341 37.333 19.5909C37.1021 19.3478 37.248 19.3964 37.1142 19.1046C36.9804 18.8128 36.8953 18.8371 36.7859 18.6183C36.6765 18.3994 36.6157 18.4724 36.7251 18.1077C36.8345 17.743 36.5914 17.7552 36.8345 17.6458C37.0776 17.5363 37.0412 17.2689 37.0048 17.1716C36.9683 17.0743 37.1871 17.0378 36.8467 16.9892C36.5063 16.9406 36.4091 17.05 36.2875 16.8433C36.1659 16.6366 36.2632 16.6002 36.0079 16.4786C35.7526 16.357 35.473 16.357 35.3757 16.2597C35.2784 16.1624 35.2784 16.1624 35.2784 16.1624C35.2784 16.1624 35.4608 16.0895 35.0474 16.0409C34.6341 15.9923 34.3302 16.0409 34.1235 15.7491C33.9167 15.4573 33.9654 15.6275 33.9167 15.3601C33.8681 15.0926 33.8073 15.0926 33.6128 14.9224C33.4183 14.7522 33.4183 14.6549 33.2359 14.582C33.0536 14.509 33.0171 14.5334 33.0171 14.5699C33.0171 14.6063 33.005 14.7522 33.1751 14.8859C33.3454 15.0197 33.3575 15.1412 33.3575 15.202C33.3575 15.2628 33.1265 15.3357 33.1265 15.3357C33.1265 15.3357 33.1265 15.2628 33.0536 15.0926C32.9806 14.9224 32.9563 14.8373 32.8104 14.6307C32.6645 14.424 32.628 14.3997 32.628 14.3997C32.628 14.3997 32.4578 14.1322 32.166 13.7797C31.8742 13.4272 31.7892 13.6459 31.7892 13.2448C31.7892 12.8436 31.8621 12.8436 31.7892 12.564C31.7162 12.2844 31.5461 12.1507 31.6919 12.1021C31.8378 12.0535 31.9228 11.9805 31.6554 11.7495C31.3879 11.5186 31.2907 11.6401 31.1934 11.3241C31.0961 11.008 31.3029 11.0323 30.9016 10.8864C30.5004 10.7405 30.4518 10.6189 30.2694 10.5338C30.0871 10.4487 29.9777 10.4001 29.9777 10.4001C29.9777 10.4001 30.0141 10.3637 29.5764 10.3272C29.1387 10.2907 29.1874 10.0841 28.8592 10.2178C28.5309 10.3515 28.4823 10.3758 28.4823 10.3758C28.4823 10.3758 28.6647 10.157 28.3486 10.1813C28.0325 10.2056 28.1054 10.2786 28.0933 10.4245C28.0811 10.5704 28.1298 10.7405 27.9109 10.8257C27.6921 10.9108 27.376 11.1418 27.4976 10.8987C27.6191 10.6555 27.923 10.4853 27.8136 10.4245C27.7042 10.3637 27.4732 10.5582 27.4489 10.3637C27.4245 10.1692 27.4732 10.0719 27.2179 10.0597C26.9626 10.0476 26.7559 9.93819 26.9504 9.85303C27.1449 9.76795 27.3273 9.80442 27.3881 9.5977C27.449 9.39099 27.8988 9.34238 27.4003 9.3546C26.9018 9.36673 26.683 9.36673 26.7438 9.26952C26.8046 9.17223 26.7803 8.98994 27.1328 9.03854C27.4855 9.08688 27.4855 8.94099 27.4004 8.84378Z" fill="#9FA6A9"/>
</g>
<path d="M7.46225 19.2034C7.40872 19.0831 7.34192 18.9828 7.255 18.9026C7.1614 18.8224 7.06111 18.7622 6.9407 18.7154C6.82706 18.6752 6.69997 18.6553 6.57297 18.6553C6.4392 18.6553 6.3122 18.6753 6.19855 18.7154C6.1852 18.7221 6.16516 18.7287 6.15171 18.7355C6.05811 18.7824 5.9645 18.8357 5.89094 18.9027C5.79733 18.9829 5.73045 19.0832 5.67692 19.2035C5.6234 19.3173 5.59668 19.4576 5.59668 19.6048V20.9555C5.59668 21.1093 5.6234 21.2429 5.67692 21.3633C5.73036 21.4837 5.79725 21.5773 5.89094 21.6642C5.97786 21.7445 6.08482 21.8046 6.19847 21.8446C6.31211 21.8848 6.4392 21.9049 6.57288 21.9049C6.63309 21.9049 6.69997 21.8982 6.76009 21.8915C6.82029 21.8781 6.88709 21.8647 6.94062 21.8446C7.06103 21.8046 7.16131 21.7445 7.25491 21.6642C7.34184 21.5773 7.40872 21.4837 7.46216 21.3633C7.51568 21.2429 7.5424 21.1093 7.5424 20.9555V19.6048C7.54249 19.4575 7.51577 19.3171 7.46225 19.2034ZM6.96074 20.9487C6.96074 21.0891 6.92066 21.1893 6.85378 21.2697C6.78689 21.3366 6.70665 21.3765 6.60637 21.3833H6.57297C6.45265 21.3833 6.35896 21.3431 6.28548 21.2697C6.21859 21.1893 6.17852 21.0891 6.17852 20.9487V19.6181C6.17852 19.5913 6.17852 19.5713 6.1852 19.5512C6.1852 19.5446 6.19187 19.5379 6.19187 19.5379C6.19855 19.4377 6.23195 19.364 6.28548 19.2971C6.29884 19.2839 6.3122 19.2704 6.32556 19.2637C6.39244 19.2035 6.47269 19.1834 6.57297 19.1834C6.6867 19.1834 6.78022 19.2169 6.85387 19.2971C6.92075 19.3774 6.96083 19.4843 6.96083 19.6181L6.96074 20.9487Z" fill="#CECECF"/>
<path d="M9.01338 18.6816L8.36475 19.25V19.8785L9.01338 19.3102V21.8778H9.60181V18.6816H9.01338Z" fill="#CECECF"/>
<path d="M10.6787 18.6816V19.7114H11.2337V19.2099H12.0829L11.0398 21.8778H11.675L12.7114 19.2099V18.6816H10.6787Z" fill="#CECECF"/>
<path d="M15.1185 19.2034C15.065 19.0831 14.9982 18.9828 14.9112 18.9026C14.8176 18.8224 14.7174 18.7622 14.597 18.7154C14.4766 18.6752 14.3562 18.6553 14.2292 18.6553C14.0954 18.6553 13.9684 18.6753 13.8548 18.7154C13.7345 18.7622 13.6341 18.8224 13.5472 18.9026C13.4536 18.9828 13.38 19.0831 13.3332 19.2034C13.2797 19.3172 13.2529 19.4575 13.2529 19.6047V20.9554C13.2529 21.1092 13.2797 21.2429 13.3332 21.3632C13.38 21.4836 13.4536 21.5772 13.5472 21.6641C13.6341 21.7444 13.7344 21.8045 13.8548 21.8446C13.9684 21.8847 14.0955 21.9048 14.2292 21.9048C14.3562 21.9048 14.4766 21.8847 14.597 21.8446C14.7173 21.8045 14.8176 21.7444 14.9112 21.6641C14.9982 21.5772 15.0651 21.4836 15.1185 21.3632C15.1719 21.2429 15.1987 21.1092 15.1987 20.9554V19.6047C15.1987 19.4575 15.1719 19.3171 15.1185 19.2034ZM14.6103 20.9487C14.6103 21.0891 14.5769 21.1893 14.51 21.2697C14.4365 21.3431 14.3429 21.3833 14.2292 21.3833C14.1089 21.3833 14.0153 21.3431 13.9417 21.2697C13.8749 21.1893 13.8348 21.0891 13.8348 20.9487V19.6181C13.8348 19.4843 13.8749 19.3773 13.9417 19.2971C14.0153 19.2169 14.1089 19.1834 14.2292 19.1834C14.3429 19.1834 14.4365 19.2169 14.51 19.2971C14.5769 19.3774 14.6103 19.4843 14.6103 19.6181V20.9487Z" fill="#CECECF"/>
<path d="M20.0128 20.5142C19.9727 20.3939 19.9058 20.2936 19.8255 20.2134C19.7453 20.1331 19.6584 20.073 19.5581 20.0262C19.4578 19.9861 19.3508 19.9659 19.2438 19.9659C19.2037 19.9659 19.1636 19.9659 19.1235 19.9726C19.0834 19.9793 19.0432 19.986 19.0098 20.006L19.2304 19.5715L19.6717 18.6821H19.0366L18.9697 18.8159V18.8226L18.8894 18.9831L18.3612 20.0662C18.3545 20.0796 18.3478 20.093 18.3412 20.1064C18.2743 20.2401 18.2208 20.3671 18.174 20.4942C18.1205 20.6279 18.0938 20.7751 18.0938 20.9221C18.0938 21.0759 18.1138 21.2163 18.1673 21.3433C18.2208 21.4637 18.2876 21.5707 18.3813 21.6509C18.4482 21.7178 18.515 21.7646 18.6019 21.8047H18.6086C18.6354 21.8181 18.6688 21.8315 18.6955 21.8448C18.8159 21.885 18.9496 21.905 19.0901 21.905C19.2304 21.905 19.3575 21.885 19.4779 21.8382C19.6049 21.798 19.7052 21.7312 19.7988 21.6442L19.8055 21.6375C19.8924 21.5506 19.9593 21.4571 20.0061 21.33C20.0596 21.2096 20.0863 21.0692 20.0863 20.9087C20.0863 20.7616 20.0596 20.6345 20.0128 20.5142ZM19.0901 20.4474C19.2171 20.4474 19.3174 20.4875 19.391 20.5744C19.4646 20.6547 19.5047 20.7751 19.5047 20.9154C19.5047 21.0625 19.4646 21.1828 19.3843 21.2631C19.3041 21.3433 19.2105 21.3834 19.0901 21.3834C18.9698 21.3834 18.8694 21.3433 18.7891 21.2631C18.7156 21.1828 18.6755 21.0625 18.6755 20.9154C18.6755 20.7683 18.7156 20.648 18.7891 20.5677C18.8694 20.4875 18.9697 20.4474 19.0901 20.4474Z" fill="#CECECF"/>
<path d="M22.5941 20.3536C22.5673 20.2133 22.487 20.0728 22.36 19.9526C22.2931 19.8856 22.213 19.8322 22.1126 19.792C22.0123 19.7519 21.8987 19.7319 21.7582 19.7319C21.6512 19.7319 21.5576 19.752 21.4707 19.7854C21.3838 19.8188 21.3236 19.8522 21.2835 19.8924V19.2104H22.574V18.6821H20.7486V20.4875H21.2835C21.3036 20.4274 21.3437 20.3671 21.4038 20.3136C21.4439 20.2736 21.4908 20.2468 21.5576 20.2401C21.591 20.2267 21.6312 20.2267 21.6713 20.2267C21.8183 20.2267 21.9187 20.2802 21.9721 20.3738C22.0323 20.474 22.0657 20.6146 22.0657 20.8017C22.0657 20.902 22.0524 20.9956 22.0389 21.0826C22.0389 21.096 22.0323 21.1026 22.0256 21.1094C22.0256 21.1161 22.0256 21.1161 22.0256 21.1161C22.0055 21.1829 21.9788 21.2364 21.9387 21.2766C21.8651 21.35 21.7782 21.3835 21.6578 21.3835C21.5375 21.3835 21.4438 21.35 21.3837 21.2766C21.3235 21.2096 21.2834 21.1161 21.2701 20.989H20.6816C20.695 21.1027 20.715 21.2163 20.7485 21.33C20.7819 21.4504 20.8421 21.5506 20.9424 21.651C21.0093 21.7246 21.1096 21.7781 21.23 21.8315C21.3436 21.885 21.4908 21.9051 21.6579 21.9051C21.7181 21.9051 21.7649 21.9051 21.8117 21.8917H21.8184C21.9187 21.885 22.0056 21.8649 22.0859 21.8316C22.1995 21.7782 22.2931 21.7179 22.3667 21.6511C22.4804 21.5307 22.5539 21.4037 22.5941 21.27C22.6275 21.1362 22.6476 20.9824 22.6476 20.8019C22.6476 20.6479 22.6275 20.5008 22.5941 20.3536Z" fill="#CECECF"/>
<path d="M23.2021 18.6816V19.7114H23.7572V19.2099H24.6064L23.57 21.8778H24.1985L25.2416 19.2099V18.6816H23.2021Z" fill="#CECECF"/>
<path d="M27.6753 19.2236C27.6284 19.0966 27.5549 18.9963 27.468 18.9094C27.3744 18.8291 27.2741 18.7622 27.1471 18.7222C27.0268 18.6753 26.8997 18.6553 26.7593 18.6553C26.6189 18.6553 26.4851 18.6753 26.3648 18.7222C26.2445 18.769 26.1374 18.8358 26.0438 18.916C25.9569 19.0029 25.89 19.11 25.8366 19.2303C25.7832 19.3573 25.7563 19.4977 25.7563 19.6515C25.7563 19.8053 25.7832 19.9391 25.8299 20.0526C25.8768 20.1664 25.9436 20.2667 26.0171 20.3468C26.0974 20.4271 26.191 20.4939 26.2912 20.534C26.3915 20.5809 26.4985 20.601 26.6055 20.601C26.6456 20.601 26.6858 20.601 26.7259 20.5943C26.7659 20.5876 26.8061 20.5742 26.8395 20.5608L26.1775 21.878H26.8127L27.4881 20.5007C27.5616 20.3536 27.6218 20.2065 27.6753 20.0728C27.7288 19.9324 27.7555 19.792 27.7555 19.6448C27.7555 19.4843 27.7288 19.3439 27.6753 19.2236ZM27.0534 19.9925C26.9732 20.0728 26.8796 20.1129 26.7593 20.1129C26.6323 20.1129 26.532 20.0728 26.4583 19.9925C26.3781 19.9056 26.3447 19.7919 26.3447 19.6515C26.3447 19.4977 26.3848 19.3841 26.4583 19.3038C26.5386 19.2236 26.6389 19.1834 26.7593 19.1834C26.8796 19.1834 26.9732 19.2236 27.0534 19.3038C27.1337 19.3841 27.1671 19.4977 27.1671 19.6515C27.1672 19.7986 27.1337 19.9123 27.0534 19.9925Z" fill="#CECECF"/>
<path d="M31.5069 18.6816L30.8516 19.25V19.8785L31.5069 19.3102V21.8778H32.0886V18.6816H31.5069Z" fill="#CECECF"/>
<path d="M33.165 18.6816V19.7114H33.7267V19.2099H34.5692L33.5328 21.8778H34.168L35.2044 19.2099V18.6816H33.165Z" fill="#CECECF"/>
<path d="M36.6086 18.6816L35.96 19.25V19.8785L36.6086 19.3102V21.8778H37.1969V18.6816H36.6086Z" fill="#CECECF"/>
<path d="M40.1924 19.2236C40.1456 19.0966 40.0721 18.9963 39.9852 18.9094C39.8916 18.8291 39.7912 18.7622 39.6642 18.7222C39.5439 18.6753 39.4168 18.6553 39.2764 18.6553C39.136 18.6553 39.0023 18.6753 38.8819 18.7222C38.7616 18.769 38.6546 18.8358 38.5609 18.916C38.474 19.0029 38.4004 19.11 38.3537 19.2303C38.3002 19.3573 38.2734 19.4977 38.2734 19.6515C38.2734 19.8053 38.3002 19.9391 38.347 20.0526C38.3938 20.1664 38.4606 20.2667 38.5342 20.3468C38.6145 20.4271 38.7014 20.4939 38.8083 20.534C38.9086 20.5809 39.0156 20.601 39.1225 20.601C39.1626 20.601 39.2028 20.601 39.2429 20.5943C39.283 20.5876 39.3231 20.5742 39.3566 20.5608L38.6946 21.878H39.3298L40.0051 20.5007C40.0787 20.3536 40.1389 20.2065 40.1924 20.0728C40.2458 19.9324 40.2726 19.792 40.2726 19.6448C40.2727 19.4843 40.246 19.3439 40.1924 19.2236ZM39.5706 19.9925C39.4904 20.0728 39.3968 20.1129 39.2764 20.1129C39.1494 20.1129 39.0491 20.0728 38.9755 19.9925C38.8953 19.9056 38.8619 19.7919 38.8619 19.6515C38.8619 19.4977 38.9019 19.3841 38.9755 19.3038C39.0558 19.2236 39.156 19.1834 39.2764 19.1834C39.3968 19.1834 39.4904 19.2236 39.5706 19.3038C39.6509 19.3841 39.6843 19.4977 39.6843 19.6515C39.6843 19.7986 39.6509 19.9123 39.5706 19.9925Z" fill="#CECECF"/>
<path d="M28.4241 27.1004C28.384 27.0135 28.3304 26.9399 28.2702 26.8797C28.2034 26.8196 28.1298 26.7728 28.0429 26.7461C27.9559 26.7126 27.8623 26.6992 27.7687 26.6992C27.6685 26.6992 27.5815 26.7126 27.4946 26.7461C27.4077 26.7729 27.3341 26.8196 27.2672 26.8797C27.2004 26.9399 27.1469 27.0135 27.1067 27.1004C27.0733 27.1874 27.0532 27.2876 27.0532 27.3946V28.3842C27.0532 28.4979 27.0733 28.5982 27.1067 28.6851C27.1469 28.772 27.2004 28.8456 27.2672 28.9057C27.3341 28.9659 27.4077 29.0127 27.4946 29.0394C27.5815 29.0729 27.6685 29.0862 27.7687 29.0862C27.8623 29.0862 27.9559 29.0729 28.0429 29.0394C28.1298 29.0127 28.2034 28.9659 28.2702 28.9057C28.3304 28.8456 28.3839 28.772 28.4241 28.6851C28.4642 28.5982 28.4776 28.4979 28.4776 28.3842V27.3946C28.4776 27.2877 28.4642 27.1875 28.4241 27.1004ZM28.0496 28.3843C28.0496 28.4845 28.0229 28.5581 27.9761 28.6183C27.9225 28.6717 27.8558 28.6985 27.7688 28.6985C27.6819 28.6985 27.615 28.6717 27.5616 28.6183C27.5081 28.5581 27.4813 28.4845 27.4813 28.3843V27.4014C27.4813 27.3079 27.5081 27.2275 27.5616 27.1673C27.6151 27.1139 27.6819 27.0871 27.7688 27.0871C27.8558 27.0871 27.9226 27.1139 27.9761 27.1673C28.0229 27.2275 28.0496 27.3078 28.0496 27.4014V28.3843Z" fill="#CECECF"/>
<path d="M30.3362 27.9496C30.3161 27.8427 30.2559 27.7423 30.1623 27.6487C30.1155 27.6019 30.0554 27.5618 29.9818 27.535C29.9082 27.5016 29.8213 27.4882 29.721 27.4882C29.6475 27.4882 29.574 27.5016 29.5138 27.5283C29.4469 27.5483 29.4001 27.5751 29.3734 27.6086V27.1004H30.3229V26.7192H28.9789V28.0431H29.3734C29.3868 27.9964 29.4203 27.9563 29.4604 27.9161C29.5071 27.876 29.5673 27.8493 29.6609 27.8493C29.7612 27.8493 29.8348 27.8894 29.8815 27.9631C29.9217 28.0365 29.9417 28.1369 29.9417 28.2773C29.9417 28.3508 29.9417 28.4176 29.9284 28.4779C29.915 28.538 29.8883 28.5849 29.8548 28.625C29.8013 28.6784 29.7345 28.6984 29.6476 28.6984C29.5606 28.6984 29.4871 28.6784 29.447 28.625C29.4001 28.5714 29.3734 28.5046 29.3601 28.411H28.9321C28.9388 28.4979 28.9522 28.5781 28.979 28.665C29.0057 28.7453 29.0525 28.8255 29.1261 28.899C29.1729 28.9459 29.2464 28.9926 29.3333 29.0327C29.4203 29.0662 29.5272 29.0862 29.6476 29.0862C29.7679 29.0862 29.8749 29.0662 29.9619 29.0327C30.0421 28.9926 30.1157 28.9459 30.1691 28.8923C30.2493 28.8122 30.3095 28.7185 30.3363 28.6183C30.363 28.5247 30.3763 28.4043 30.3763 28.2773C30.3763 28.1636 30.3629 28.0566 30.3362 27.9496Z" fill="#CECECF"/>
<path d="M31.56 26.4722L30.6172 29.3139H31.0183L31.9611 26.4722H31.56Z" fill="#CECECF"/>
<path d="M32.8505 26.7192L32.3691 27.1339V27.5952L32.8505 27.1807V29.0662H33.2785V26.7192H32.8505Z" fill="#CECECF"/>
<path d="M34.7227 26.7192L34.2412 27.1339V27.5952L34.7227 27.1807V29.0662H35.1506V26.7192H34.7227Z" fill="#CECECF"/>
<path d="M35.9731 27.9229V28.324H36.9894V27.9229H35.9731Z" fill="#CECECF"/>
<path d="M38.8214 27.1004C38.7813 27.0135 38.7278 26.9399 38.6609 26.8797C38.6008 26.8196 38.5206 26.7728 38.4337 26.7461C38.3467 26.7126 38.2598 26.6992 38.1662 26.6992C38.0659 26.6992 37.979 26.7126 37.8921 26.7461C37.8051 26.7729 37.7316 26.8196 37.6647 26.8797C37.5978 26.9399 37.5444 27.0135 37.5042 27.1004C37.4641 27.1874 37.4507 27.2876 37.4507 27.3946V28.3842C37.4507 28.4979 37.464 28.5982 37.5042 28.6851C37.5443 28.772 37.5978 28.8456 37.6647 28.9057C37.7316 28.9659 37.8051 29.0127 37.8921 29.0394C37.979 29.0729 38.0659 29.0862 38.1662 29.0862C38.2598 29.0862 38.3467 29.0729 38.4337 29.0394C38.5206 29.0127 38.6008 28.9659 38.6609 28.9057C38.7278 28.8456 38.7813 28.772 38.8214 28.6851C38.8548 28.5982 38.8749 28.4979 38.8749 28.3842V27.3946C38.8749 27.2877 38.8548 27.1875 38.8214 27.1004ZM38.4469 28.3843C38.4469 28.4845 38.4201 28.5581 38.3667 28.6183C38.3199 28.6717 38.2464 28.6985 38.1661 28.6985C38.0792 28.6985 38.0056 28.6717 37.9589 28.6183C37.9053 28.5581 37.8786 28.4845 37.8786 28.3843V27.4014C37.8786 27.3079 37.9053 27.2275 37.9589 27.1673C38.0057 27.1139 38.0792 27.0871 38.1661 27.0871C38.2464 27.0871 38.3199 27.1139 38.3667 27.1673C38.4202 27.2275 38.4469 27.3078 38.4469 27.4014V28.3843Z" fill="#CECECF"/>
<path d="M40.6935 27.1004C40.6534 27.0135 40.5999 26.9399 40.5397 26.8797C40.4728 26.8196 40.3993 26.7728 40.3124 26.7461C40.2255 26.7126 40.1319 26.6992 40.0382 26.6992C39.9379 26.6992 39.851 26.7126 39.7641 26.7461C39.6771 26.7729 39.6036 26.8196 39.5367 26.8797C39.4699 26.9399 39.4164 27.0135 39.3762 27.1004C39.3428 27.1874 39.3228 27.2876 39.3228 27.3946V28.3842C39.3228 28.4979 39.3428 28.5982 39.3762 28.6851C39.4163 28.772 39.4698 28.8456 39.5367 28.9057C39.6036 28.9659 39.6771 29.0127 39.7641 29.0394C39.851 29.0729 39.9379 29.0862 40.0382 29.0862C40.1318 29.0862 40.2254 29.0729 40.3124 29.0394C40.3993 29.0127 40.4729 28.9659 40.5397 28.9057C40.5999 28.8456 40.6534 28.772 40.6935 28.6851C40.7336 28.5982 40.7469 28.4979 40.7469 28.3842V27.3946C40.747 27.2877 40.7337 27.1875 40.6935 27.1004ZM40.3191 28.3843C40.3191 28.4845 40.2923 28.5581 40.2455 28.6183C40.1921 28.6717 40.1252 28.6985 40.0383 28.6985C39.9514 28.6985 39.8845 28.6717 39.831 28.6183C39.7776 28.5581 39.7508 28.4845 39.7508 28.3843V27.4014C39.7508 27.3079 39.7776 27.2275 39.831 27.1673C39.8845 27.1139 39.9514 27.0871 40.0383 27.0871C40.1252 27.0871 40.1921 27.1139 40.2455 27.1673C40.2924 27.2275 40.3191 27.3078 40.3191 27.4014V28.3843Z" fill="#CECECF"/>
<path d="M5.93066 22.7007V22.9147H6.25164V23.9244H6.49237V22.9147H6.81335V22.7007H5.93066Z" fill="#CECECF"/>
<path d="M7.89643 23.0218C7.88307 22.9818 7.8763 22.9484 7.85635 22.9149C7.84299 22.8814 7.81618 22.8479 7.78278 22.8146C7.7427 22.7745 7.69586 22.741 7.64242 22.721C7.5889 22.7009 7.52869 22.6875 7.46189 22.6875C7.38833 22.6875 7.32813 22.7009 7.27469 22.721C7.22125 22.741 7.1744 22.7745 7.13433 22.8146C7.10093 22.848 7.07412 22.8815 7.06076 22.9149C7.04063 22.9484 7.03396 22.9818 7.02068 23.0218C7.014 23.062 7.014 23.1088 7.00732 23.1556V23.4698C7.014 23.5166 7.014 23.5567 7.02068 23.5969C7.03404 23.637 7.04072 23.6771 7.06076 23.7105C7.07412 23.7374 7.10084 23.7708 7.13433 23.8041C7.1744 23.8443 7.22125 23.8777 7.27469 23.8978C7.32821 23.9246 7.38842 23.9312 7.46189 23.9312C7.52878 23.9312 7.58898 23.9246 7.64242 23.8978C7.69586 23.8777 7.7427 23.8443 7.78278 23.8041C7.81618 23.7708 7.84299 23.7373 7.85635 23.7105C7.87639 23.6771 7.88307 23.637 7.89643 23.5969C7.90311 23.5567 7.90979 23.5166 7.90979 23.4698V23.1556C7.90979 23.1088 7.90311 23.062 7.89643 23.0218ZM7.66905 23.4565C7.66905 23.4966 7.66237 23.5233 7.65569 23.5501C7.65569 23.5769 7.64901 23.5969 7.64233 23.6103C7.63565 23.6236 7.62221 23.637 7.60885 23.6503C7.59549 23.6705 7.57545 23.6904 7.54873 23.6971C7.52201 23.7105 7.4952 23.7171 7.46181 23.7171C7.42841 23.7171 7.39501 23.7105 7.3682 23.6971C7.34816 23.6904 7.32136 23.6704 7.30141 23.6503C7.29473 23.637 7.28128 23.6236 7.2746 23.6103C7.26792 23.5969 7.26124 23.5768 7.26124 23.5501C7.25456 23.5233 7.24788 23.4966 7.24788 23.4565V23.1623C7.24788 23.1289 7.25456 23.0954 7.26124 23.0687C7.26124 23.0419 7.26792 23.0218 7.2746 23.0086C7.28128 22.9952 7.29464 22.9818 7.30141 22.9684C7.32145 22.9484 7.34825 22.935 7.3682 22.9216C7.39501 22.9083 7.42841 22.9016 7.46181 22.9016C7.4952 22.9016 7.52201 22.9083 7.54873 22.9216C7.57545 22.935 7.59558 22.9484 7.60885 22.9684C7.62221 22.9818 7.63565 22.9952 7.64233 23.0086C7.64901 23.0218 7.65569 23.042 7.65569 23.0687C7.66237 23.0955 7.66905 23.1289 7.66905 23.1623V23.4565Z" fill="#CECECF"/>
<path d="M9.04647 22.9348C9.03311 22.888 9.00639 22.8478 8.96622 22.8144C8.93282 22.7743 8.89266 22.7476 8.83922 22.7275C8.79237 22.7074 8.73226 22.7007 8.67205 22.7007H8.19727V23.9244H8.438V23.463H8.67196C8.73217 23.463 8.79229 23.4497 8.83913 23.4296C8.89266 23.4094 8.93273 23.3827 8.96613 23.3492C9.0063 23.3158 9.03302 23.2758 9.04638 23.2289C9.0665 23.1821 9.0731 23.1287 9.0731 23.0819C9.07318 23.0284 9.06659 22.9817 9.04647 22.9348ZM8.79237 23.2023C8.75897 23.2291 8.71213 23.2491 8.6586 23.2491H8.438V22.9148H8.6586C8.71213 22.9148 8.75889 22.9281 8.79237 22.955C8.81909 22.9884 8.83922 23.0284 8.83922 23.082C8.83922 23.1288 8.81909 23.1689 8.79237 23.2023Z" fill="#CECECF"/>
<path d="M10.1232 22.9147V22.7007H9.3208V23.9244H10.1232V23.7104H9.56153V23.4095H10.0429V23.1955H9.56153V22.9147H10.1232Z" fill="#CECECF"/>
<path d="M10.952 23.6707C10.9186 23.7041 10.8718 23.7175 10.8117 23.7175C10.7783 23.7175 10.7515 23.7108 10.7247 23.7041C10.698 23.6907 10.6779 23.6774 10.6579 23.6573C10.6512 23.644 10.6378 23.6306 10.6311 23.6106C10.6245 23.5972 10.6178 23.5771 10.6111 23.5504C10.6111 23.5236 10.6044 23.4969 10.6044 23.4569C10.6044 23.4167 10.5977 23.3698 10.5977 23.3097C10.5977 23.2496 10.6044 23.2028 10.6044 23.1627C10.6044 23.1293 10.6111 23.0958 10.6111 23.0691C10.6178 23.0423 10.6245 23.0222 10.6311 23.009C10.6378 22.9956 10.6512 22.9755 10.6579 22.9688C10.6779 22.9488 10.698 22.9287 10.7247 22.922C10.7515 22.9087 10.7783 22.902 10.8117 22.902C10.8718 22.902 10.9186 22.9154 10.952 22.9488C10.9855 22.9822 11.0055 23.0223 11.0189 23.0758H11.2596C11.2396 22.9488 11.1861 22.8485 11.1058 22.7884C11.0256 22.7214 10.9253 22.688 10.8117 22.688C10.7448 22.688 10.6779 22.7013 10.6245 22.7215C10.5776 22.7415 10.5242 22.775 10.4841 22.8151C10.4573 22.8485 10.4306 22.882 10.4105 22.9154C10.3972 22.9488 10.3838 22.9822 10.3771 23.0223C10.3704 23.0625 10.3638 23.1093 10.3638 23.1561V23.4703C10.3638 23.5171 10.3704 23.5572 10.3771 23.5974C10.3838 23.6375 10.3973 23.6776 10.4105 23.711C10.4307 23.7378 10.4574 23.7712 10.4841 23.8046C10.5242 23.8448 10.5777 23.8782 10.6245 23.8982C10.678 23.9251 10.7448 23.9317 10.8117 23.9317C10.9253 23.9317 11.0257 23.8982 11.1058 23.8381C11.1861 23.7712 11.2396 23.6776 11.2596 23.5439H11.0189C11.0055 23.5971 10.9855 23.6372 10.952 23.6707Z" fill="#CECECF"/>
<path d="M12.3698 23.1556C12.3698 23.1088 12.3632 23.062 12.3565 23.0218C12.3498 22.9818 12.3363 22.9484 12.3164 22.9149C12.303 22.8814 12.2763 22.8479 12.2495 22.8146C12.2094 22.7745 12.1626 22.741 12.1091 22.721C12.0556 22.7009 11.9954 22.6875 11.9219 22.6875C11.8484 22.6875 11.7882 22.7009 11.7347 22.721C11.6812 22.741 11.6345 22.7745 11.5943 22.8146C11.5609 22.848 11.5408 22.8815 11.5207 22.9149C11.5074 22.9484 11.4939 22.9818 11.4873 23.0218C11.4806 23.062 11.474 23.1088 11.474 23.1556C11.474 23.2024 11.4673 23.2492 11.4673 23.3094C11.4673 23.3695 11.474 23.4231 11.474 23.4699C11.474 23.5167 11.4806 23.5568 11.4873 23.597C11.494 23.6371 11.5074 23.6772 11.5207 23.7106C11.5408 23.7374 11.5608 23.7708 11.5943 23.8042C11.6344 23.8444 11.6812 23.8778 11.7347 23.8978C11.7882 23.9246 11.8484 23.9313 11.9219 23.9313C11.9955 23.9313 12.0557 23.9246 12.1091 23.8978C12.1626 23.8778 12.2094 23.8444 12.2495 23.8042C12.2763 23.7708 12.303 23.7374 12.3164 23.7106C12.3364 23.6772 12.3498 23.6371 12.3565 23.597C12.3632 23.5568 12.3698 23.5167 12.3698 23.4699C12.3698 23.4231 12.3765 23.3696 12.3765 23.3094C12.3765 23.2492 12.3698 23.2024 12.3698 23.1556ZM12.1291 23.4565C12.1291 23.4966 12.1224 23.5233 12.1224 23.5501C12.1157 23.5769 12.1091 23.5969 12.1024 23.6103C12.0957 23.6236 12.089 23.637 12.0757 23.6503C12.0555 23.6705 12.0356 23.6904 12.0088 23.6971C11.9821 23.7105 11.9553 23.7171 11.9219 23.7171C11.8885 23.7171 11.8617 23.7105 11.8349 23.6971C11.8082 23.6904 11.7881 23.6704 11.768 23.6503C11.7547 23.637 11.748 23.6236 11.7413 23.6103C11.728 23.5969 11.728 23.5768 11.7212 23.5501C11.7145 23.5233 11.7145 23.4966 11.7078 23.4565V23.1623C11.7145 23.1289 11.7145 23.0954 11.7212 23.0687C11.7279 23.0419 11.7279 23.0218 11.7413 23.0086C11.748 22.9952 11.7547 22.9818 11.768 22.9684C11.7881 22.9484 11.8081 22.935 11.8349 22.9216C11.8617 22.9083 11.8885 22.9016 11.9219 22.9016C11.9553 22.9016 11.9821 22.9083 12.0088 22.9216C12.0356 22.935 12.0556 22.9484 12.0757 22.9684C12.089 22.9818 12.0957 22.9952 12.1024 23.0086C12.1091 23.0218 12.1157 23.042 12.1224 23.0687C12.1224 23.0955 12.1291 23.1289 12.1291 23.1623C12.1358 23.2024 12.1358 23.2492 12.1358 23.3093C12.1358 23.3695 12.1358 23.4164 12.1291 23.4565Z" fill="#CECECF"/>
<path d="M13.3593 22.7007V23.4496L12.8712 22.7007H12.6572V23.9244H12.898V23.1688L13.386 23.9244H13.5999V22.7007H13.3593Z" fill="#CECECF"/>
<path d="M15.2382 23.4567C15.2248 23.4232 15.2048 23.3897 15.178 23.363C15.1646 23.3496 15.1513 23.3363 15.1379 23.3296C15.1246 23.3162 15.1112 23.3095 15.0845 23.2962C15.1848 23.236 15.2383 23.1557 15.2383 23.0353C15.2383 22.9819 15.2249 22.9351 15.2116 22.895C15.1915 22.8548 15.1647 22.8214 15.1313 22.7881C15.1046 22.768 15.0846 22.7546 15.0511 22.7412C15.0444 22.7346 15.031 22.7279 15.0177 22.7212C14.9642 22.7079 14.9174 22.7012 14.8572 22.7012H14.3691V23.9249H14.8773C14.9374 23.9249 14.991 23.9115 15.0311 23.8981C15.078 23.878 15.1181 23.8579 15.1515 23.8245C15.1849 23.7978 15.2117 23.7576 15.225 23.7175C15.2451 23.6775 15.2518 23.624 15.2518 23.5705C15.2516 23.5302 15.2449 23.49 15.2382 23.4567ZM14.6029 22.915H14.837C14.8503 22.915 14.8638 22.915 14.8705 22.9217C14.9105 22.9217 14.9306 22.9284 14.9574 22.9485C14.9841 22.9752 14.9975 23.0087 14.9975 23.0555C14.9975 23.0956 14.9841 23.1291 14.9574 23.1557C14.9239 23.1825 14.8905 23.1958 14.837 23.1958H14.6029V22.915ZM14.9708 23.6706C14.944 23.6973 14.9039 23.7107 14.8571 23.7107H14.603V23.4098H14.8571C14.904 23.4098 14.944 23.4232 14.9708 23.45C14.9976 23.4767 15.0176 23.5102 15.0176 23.557C15.0175 23.6037 14.9975 23.6438 14.9708 23.6706Z" fill="#CECECF"/>
<path d="M16.0405 22.7007H15.8533L15.4053 23.9244H15.6527L15.7263 23.7037H16.1609L16.2344 23.9244H16.4818L16.0405 22.7007ZM15.793 23.5031L15.9535 23.0618L16.1007 23.5031H15.793Z" fill="#CECECF"/>
<path d="M17.378 22.7007V23.4496L16.8899 22.7007H16.6826V23.9244H16.9167V23.1688L17.4048 23.9244H17.6188V22.7007H17.378Z" fill="#CECECF"/>
<path d="M18.5013 23.1821L18.9025 22.7007H18.615L18.1803 23.2289V22.7007H17.9463V23.9244H18.1803V23.5566L18.3408 23.3626L18.655 23.9243H18.9358L18.5013 23.1821Z" fill="#CECECF"/>
<path d="M31.2724 15.038C31.239 15.0715 31.1922 15.0848 31.1321 15.0848C31.0986 15.0848 31.0719 15.0781 31.0451 15.0647C31.0183 15.058 30.9983 15.0379 30.9783 15.0245C30.9716 15.0112 30.9582 14.9977 30.9515 14.9778C30.9449 14.9644 30.9382 14.9443 30.9315 14.9176C30.9315 14.8908 30.9248 14.8574 30.9248 14.824C30.9248 14.7839 30.9181 14.7371 30.9181 14.6769C30.9181 14.6167 30.9248 14.57 30.9248 14.5298C30.9248 14.4896 30.9315 14.4629 30.9315 14.4363C30.9382 14.4095 30.9449 14.3894 30.9515 14.3761C30.9582 14.356 30.9716 14.3426 30.9783 14.3292C30.9983 14.3093 31.0183 14.2958 31.0451 14.2825C31.0719 14.2758 31.0986 14.2692 31.1321 14.2692C31.1922 14.2692 31.239 14.2825 31.2724 14.3159C31.3058 14.3493 31.3259 14.3895 31.3393 14.4429H31.58C31.5599 14.3093 31.5065 14.2157 31.4262 14.1488C31.346 14.0887 31.2457 14.0552 31.1321 14.0552C31.0652 14.0552 30.9983 14.0685 30.9515 14.0887C30.898 14.1087 30.8513 14.1421 30.8044 14.1822C30.7777 14.2157 30.751 14.2491 30.7375 14.2825C30.7175 14.3093 30.7041 14.3493 30.6974 14.3894C30.6908 14.4296 30.6841 14.4697 30.6841 14.5164V14.8374C30.6841 14.8842 30.6908 14.9244 30.6974 14.9645C30.7041 15.0046 30.7175 15.0381 30.7375 15.0715C30.7509 15.1049 30.7777 15.1383 30.8044 15.1717C30.8513 15.2118 30.898 15.2453 30.9515 15.2653C30.9984 15.2854 31.0652 15.2987 31.1321 15.2987C31.2457 15.2987 31.346 15.2653 31.4262 15.1985C31.5065 15.1383 31.5599 15.038 31.58 14.911H31.3393C31.3259 14.9644 31.3058 15.0045 31.2724 15.038Z" fill="#CECECF"/>
<path d="M32.4825 14.7575C32.5159 14.7508 32.5427 14.7374 32.5695 14.7173C32.5963 14.6972 32.623 14.6772 32.643 14.6504C32.6631 14.6236 32.6765 14.5903 32.6899 14.5568C32.6965 14.5367 32.7032 14.51 32.7032 14.4833C32.7099 14.4699 32.7099 14.4498 32.7099 14.4365C32.7099 14.3897 32.6965 14.3361 32.6831 14.2961C32.6631 14.2493 32.6363 14.2091 32.6029 14.1757C32.5695 14.1423 32.5293 14.1155 32.4758 14.0955C32.4491 14.0821 32.4291 14.0754 32.3956 14.0687H32.3889C32.3622 14.062 32.3355 14.062 32.3087 14.062H31.834V15.2856H32.068V14.7976H32.2419L32.4826 15.2856H32.7567L32.4825 14.7575ZM32.4224 14.5568C32.3889 14.5836 32.3488 14.6037 32.2954 14.6037H32.068V14.2759H32.2954C32.3488 14.2759 32.389 14.2893 32.4224 14.3227C32.4558 14.3495 32.4693 14.3897 32.4693 14.4365C32.4692 14.49 32.4558 14.5234 32.4224 14.5568Z" fill="#CECECF"/>
<path d="M33.8067 14.2759V14.062H32.9976V15.2856H33.8067V15.0717H33.2383V14.7774H33.7198V14.5635H33.2383V14.2759H33.8067Z" fill="#CECECF"/>
<path d="M34.9633 14.4565C34.9633 14.4431 34.9566 14.4297 34.9566 14.4231C34.9566 14.3896 34.9432 14.3562 34.9365 14.3294C34.9232 14.296 34.9097 14.2693 34.8897 14.2425C34.8496 14.1823 34.7961 14.1356 34.7359 14.1088C34.6758 14.0821 34.6089 14.062 34.5219 14.062H34.0806V15.2856H34.5219C34.6088 15.2856 34.6757 15.2724 34.7359 15.2455C34.7694 15.2322 34.7961 15.2121 34.8228 15.192C34.8496 15.1719 34.8696 15.1453 34.8897 15.1118C34.9097 15.0851 34.9231 15.0583 34.9365 15.0249C34.9432 14.998 34.9566 14.9647 34.9566 14.9313C34.9633 14.8979 34.9633 14.8577 34.9699 14.8176V14.5367C34.9633 14.5099 34.9633 14.4833 34.9633 14.4565ZM34.7292 14.8042C34.7292 14.8376 34.7225 14.8643 34.7225 14.8911C34.7158 14.9179 34.7158 14.9379 34.7092 14.9512C34.7025 14.9712 34.689 14.9847 34.6824 14.998C34.6424 15.0515 34.5822 15.0716 34.5019 15.0716H34.3214V14.2758H34.5019C34.5822 14.2758 34.6424 14.3027 34.6824 14.3561C34.6891 14.3695 34.7025 14.3829 34.7092 14.4029C34.7158 14.4163 34.7158 14.4364 34.7225 14.4631C34.7225 14.4898 34.7292 14.5165 34.7292 14.55V14.8042Z" fill="#CECECF"/>
<path d="M35.2578 14.062V15.2856H35.4919V14.062H35.2578Z" fill="#CECECF"/>
<path d="M35.7324 14.062V14.2759H36.0534V15.2856H36.2875V14.2759H36.6084V14.062H35.7324Z" fill="#CECECF"/>
<path d="M37.8388 15.038C37.8054 15.0715 37.7586 15.0848 37.6984 15.0848C37.665 15.0848 37.6383 15.0781 37.6115 15.0647C37.5846 15.058 37.5646 15.0379 37.5446 15.0245C37.5379 15.0112 37.5245 14.9977 37.5179 14.9778C37.5112 14.9644 37.5045 14.9443 37.4978 14.9176C37.4978 14.8908 37.4911 14.8574 37.4911 14.824C37.4845 14.7839 37.4845 14.7371 37.4845 14.6769C37.4845 14.6167 37.4845 14.57 37.4911 14.5298C37.4911 14.4896 37.4978 14.4629 37.4978 14.4363C37.5045 14.4095 37.5112 14.3894 37.5179 14.3761C37.5245 14.356 37.5379 14.3426 37.5446 14.3292C37.5646 14.3093 37.5846 14.2958 37.6115 14.2825C37.6382 14.2758 37.6649 14.2692 37.6984 14.2692C37.7586 14.2692 37.8053 14.2825 37.8388 14.3159C37.8722 14.3493 37.8924 14.3895 37.9057 14.4429H38.1464C38.1264 14.3093 38.0729 14.2157 37.9926 14.1488C37.9124 14.0887 37.8121 14.0552 37.6985 14.0552C37.6316 14.0552 37.5648 14.0685 37.5113 14.0887C37.4644 14.1087 37.411 14.1421 37.3708 14.1822C37.3374 14.2157 37.3174 14.2491 37.2972 14.2825C37.2839 14.3093 37.2705 14.3493 37.2638 14.3894C37.2572 14.4296 37.2505 14.4697 37.2505 14.5164V14.8374C37.2505 14.8842 37.2572 14.9244 37.2638 14.9645C37.2705 15.0046 37.2839 15.0381 37.2972 15.0715C37.3173 15.1049 37.3373 15.1383 37.3708 15.1717C37.4109 15.2118 37.4644 15.2453 37.5113 15.2653C37.5648 15.2854 37.6316 15.2987 37.6985 15.2987C37.8122 15.2987 37.9125 15.2653 37.9926 15.1985C38.0729 15.1383 38.1264 15.038 38.1464 14.911H37.9057C37.8924 14.9644 37.8722 15.0045 37.8388 15.038Z" fill="#CECECF"/>
<path d="M38.895 14.062H38.7077L38.2598 15.2856H38.5139L38.5874 15.0717H39.022L39.0956 15.2856H39.343L38.895 14.062ZM38.6543 14.871L38.8081 14.4231L38.9552 14.871H38.6543Z" fill="#CECECF"/>
<path d="M40.1857 14.7575C40.2191 14.7508 40.2458 14.7374 40.2726 14.7173C40.2993 14.6972 40.3261 14.6772 40.3461 14.6504C40.3662 14.6236 40.3795 14.5903 40.393 14.5568C40.4063 14.5233 40.413 14.4833 40.413 14.4365C40.413 14.3897 40.4063 14.3361 40.3863 14.2961C40.3663 14.2493 40.3395 14.2091 40.3061 14.1757C40.2727 14.1423 40.2325 14.1155 40.1791 14.0955C40.1322 14.0754 40.0788 14.062 40.0186 14.062H39.5371V15.2856H39.7778V14.7976H39.945L40.1857 15.2856H40.4599L40.1857 14.7575ZM40.1254 14.5568C40.0921 14.5836 40.0519 14.6037 39.9984 14.6037H39.7778V14.2759H39.9984C40.052 14.2759 40.0921 14.2893 40.1254 14.3227C40.1589 14.3495 40.1723 14.3897 40.1723 14.4365C40.1723 14.49 40.1589 14.5234 40.1254 14.5568Z" fill="#CECECF"/>
<path d="M41.5832 14.4231C41.5765 14.3896 41.5698 14.3562 41.5565 14.3294C41.5498 14.296 41.5298 14.2693 41.5164 14.2425C41.4696 14.1823 41.4161 14.1356 41.3559 14.1088C41.3024 14.0821 41.2289 14.062 41.142 14.062H40.7007V15.2856H41.142C41.2289 15.2856 41.3025 15.2724 41.3559 15.2455C41.416 15.2187 41.4696 15.1719 41.5164 15.1118C41.5298 15.0851 41.5498 15.0583 41.5565 15.0249C41.5698 14.998 41.5765 14.9647 41.5832 14.9313C41.5832 14.8979 41.5899 14.8577 41.5899 14.8176V14.5367C41.5899 14.4965 41.5832 14.4565 41.5832 14.4231ZM41.3492 14.8042C41.3492 14.8376 41.3492 14.8643 41.3425 14.8911C41.3425 14.9179 41.3359 14.9379 41.3292 14.9512C41.3225 14.9712 41.3158 14.9847 41.3024 14.998C41.2623 15.0515 41.2021 15.0716 41.1219 15.0716H40.9413V14.2758H41.1219C41.2021 14.2758 41.2622 14.3027 41.3024 14.3561C41.3157 14.3695 41.3224 14.3829 41.3292 14.4029C41.3359 14.4163 41.3425 14.4364 41.3425 14.4631C41.3492 14.4898 41.3492 14.5165 41.3492 14.55V14.8042Z" fill="#CECECF"/>
<path d="M41.7149 2.98151V7.69412C41.7149 7.88379 41.5597 8.03892 41.3701 8.03892H35.5655C35.3758 8.03892 35.2207 7.88379 35.2207 7.69412V2.98151C35.2207 2.79185 35.3758 2.63672 35.5655 2.63672H41.3701C41.5596 2.63663 41.7149 2.79185 41.7149 2.98151Z" fill="#F7D072"/>
<path opacity="0.2" d="M40.4402 3.77775L41.4499 2.76807H41.1222L40.253 3.64398L40.1193 3.77775L40.019 3.87136L39.3303 4.56007H37.8325L37.6988 4.4263L37.1438 3.87136L36.9231 3.64398L36.0472 2.76807H35.7196L36.5888 3.64398L36.7226 3.77775H35.3385V4.00504H36.9565L37.3845 4.43966L37.4981 4.56007V4.82743H35.3384V5.06148H37.4981V5.88388H35.3384V6.11116H37.4981V6.38529H37.5115L37.0902 6.79996L36.9564 6.93373H35.3384V7.16778H36.7225L35.8532 8.03702H36.1809L37.0501 7.16778L37.8325 6.38556H39.3302L40.9885 8.03711H41.3094L40.4402 7.16787H41.7172V6.93382H40.2128L39.6645 6.38556V6.11143H41.7173V5.88414H39.6645V5.06175H41.7173V4.8277H39.6645V4.56033L40.2128 4.0053H41.7172V3.77802H40.4402V3.77775ZM39.4372 6.15142H37.7255V4.78744H39.4372V6.15142Z" fill="white"/>
<path d="M37.7186 4.42676L37.946 4.65404H38.9891L39.0827 4.56053L39.2164 4.42676H37.7186ZM37.7186 4.42676L37.946 4.65404H38.9891L39.0827 4.56053L39.2164 4.42676H37.7186ZM37.7186 4.42676L37.946 4.65404H38.9891L39.0827 4.56053L39.2164 4.42676H37.7186ZM37.7186 4.42676L37.946 4.65404H38.9891L39.0827 4.56053L39.2164 4.42676H37.7186ZM39.1228 6.15187L38.9891 6.01819H37.946L37.819 6.15187H37.8123L37.7187 6.25216H39.2164L39.1228 6.15187ZM37.7186 4.42676L37.946 4.65404H38.9891L39.0827 4.56053L39.2164 4.42676H37.7186ZM37.3843 4.42676V6.25216H39.5507V4.42676H37.3843ZM39.3233 6.01819H37.6116V4.65413H39.3233V6.01819ZM37.7186 4.42676L37.946 4.65404H38.9891L39.0827 4.56053L39.2164 4.42676H37.7186ZM37.7186 4.42676L37.946 4.65404H38.9891L39.0827 4.56053L39.2164 4.42676H37.7186ZM37.7186 4.42676L37.946 4.65404H38.9891L39.0827 4.56053L39.2164 4.42676H37.7186ZM37.7186 4.42676L37.946 4.65404H38.9891L39.0827 4.56053L39.2164 4.42676H37.7186ZM37.7186 4.42676L37.946 4.65404H38.9891L39.0827 4.56053L39.2164 4.42676H37.7186ZM37.7186 4.42676L37.946 4.65404H38.9891L39.0827 4.56053L39.2164 4.42676H37.7186Z" fill="#717070"/>
<path d="M36.9347 3.64209L37.1647 3.87201H35.2207V3.64209H36.9347Z" fill="#717070"/>
<path d="M41.715 3.64209V3.87201H39.771L40.0008 3.64209H41.715Z" fill="#717070"/>
<path d="M37.6129 4.6958H35.2207V4.92572H37.6129V4.6958Z" fill="#717070"/>
<path d="M41.715 4.6958H39.3228V4.92572H41.715V4.6958Z" fill="#717070"/>
<path d="M37.6129 5.74951H35.2207V5.97943H37.6129V5.74951Z" fill="#717070"/>
<path d="M41.715 5.74951H39.3228V5.97943H41.715V5.74951Z" fill="#717070"/>
<path d="M37.1649 6.80273L36.935 7.03266H35.2207V6.80273H37.1649Z" fill="#717070"/>
<path d="M41.7147 6.80273V7.03266H40.0003L39.7705 6.80273H41.7147Z" fill="#717070"/>
<path d="M37.9481 6.02002L35.9294 8.03869H35.6045L37.6232 6.02002H37.9481Z" fill="#717070"/>
<path d="M41.3319 2.63623L39.3132 4.6549H38.9883L41.007 2.63623H41.3319Z" fill="#717070"/>
<path d="M37.9477 4.6549H37.6227L35.604 2.63623H35.929L37.9477 4.6549Z" fill="#717070"/>
<path d="M41.3315 8.03869H41.0065L39.2177 6.24994L39.122 6.15423L38.9878 6.02002H39.3128L39.4378 6.145L39.5427 6.24994L39.6677 6.37492L40.0958 6.80304L40.23 6.93725L40.3258 7.03296L40.46 7.16717L41.3315 8.03869Z" fill="#717070"/>
<path d="M6.94506 4.69547C6.94506 3.976 7.24178 3.32613 7.71902 2.86049C7.25689 2.40961 6.62549 2.13135 5.92887 2.13135C4.51269 2.13135 3.36475 3.27938 3.36475 4.69547C3.36475 6.11165 4.51277 7.25959 5.92887 7.25959C6.62558 7.25959 7.25698 6.98133 7.71902 6.53045C7.24178 6.06489 6.94506 5.41494 6.94506 4.69547Z" fill="#DC3B39"/>
<path d="M9.50939 2.13135C8.81269 2.13135 8.18137 2.40961 7.71924 2.86049C8.19648 3.32613 8.4932 3.976 8.4932 4.69547C8.4932 5.41494 8.19648 6.06481 7.71924 6.53045C8.18137 6.98133 8.81277 7.25959 9.50939 7.25959C10.9256 7.25959 12.0735 6.11156 12.0735 4.69547C12.0735 3.27938 10.9255 2.13135 9.50939 2.13135Z" fill="#E6AB2D"/>
<path d="M8.49324 4.69533C8.49324 3.97586 8.19652 3.326 7.71928 2.86035C7.24203 3.326 6.94531 3.97586 6.94531 4.69533C6.94531 5.4148 7.24203 6.06467 7.71928 6.53031C8.19652 6.06476 8.49324 5.4148 8.49324 4.69533Z" fill="#D67261"/>
<path d="M8.49327 4.69541C8.49327 4.64127 8.49107 4.58766 8.48773 4.53431L7.31809 3.36475C7.23239 3.50546 7.15971 3.65496 7.10205 3.81185L8.45029 5.16009C8.47798 5.00927 8.49327 4.85423 8.49327 4.69541Z" fill="#E6AB2D"/>
<path d="M6.97142 4.33252C6.95463 4.45108 6.94531 4.57211 6.94531 4.69524C6.94531 4.79368 6.95138 4.89071 6.96219 4.98625L8.07427 6.09833C8.16374 5.96201 8.24047 5.81673 8.30296 5.66397L6.97142 4.33252Z" fill="#E6AB2D"/>
<path opacity="0.2" d="M45 16.3555H0V16.9172H45V16.3555Z" fill="#040000"/>
<path opacity="0.2" d="M45.0002 1.43095V29.1398C45.0002 29.9288 44.3515 30.5773 43.5625 30.5773H7.21484L14.3694 23.4228L14.6034 23.1888L14.8708 22.9214L15.0513 22.7409L18.7757 19.0165L18.9696 18.8226V18.8159L19.0966 18.6955L19.11 18.6821L19.6784 18.1071L19.8589 17.9333L20.8752 16.9169L21.437 16.3552L27.4481 10.3441L29.3804 8.41184L37.6717 0.113818L37.7854 0H43.5625C44.3515 0 45.0002 0.641865 45.0002 1.43095Z" fill="#040000"/>
<defs>
<linearGradient id="paint0_linear_169_2105" x1="22.5" y1="0.113743" x2="22.5" y2="30.6911" gradientUnits="userSpaceOnUse">
<stop stop-color="#44484A"/>
<stop offset="1" stop-color="#193741"/>
</linearGradient>
</defs>
</svg>
