<svg width="75" height="19" viewBox="0 0 75 19" fill="none" xmlns="http://www.w3.org/2000/svg">
<path d="M13.6836 1.43015C12.8055 0.429245 11.2181 0.000132916 9.1874 0.000132916H3.29369C3.09267 2.59096e-05 2.89821 0.0716693 2.7453 0.202168C2.5924 0.332667 2.49109 0.513452 2.4596 0.711994L0.00664785 16.2769C-0.00472615 16.3491 -0.000311499 16.423 0.0195879 16.4933C0.0394873 16.5636 0.0743984 16.6288 0.121916 16.6844C0.169433 16.7399 0.228427 16.7845 0.294833 16.815C0.36124 16.8456 0.43348 16.8614 0.506577 16.8613H4.14509L5.05892 11.0652L5.03059 11.2467C5.06147 11.0486 5.16211 10.868 5.31436 10.7374C5.46661 10.6069 5.66047 10.5351 5.86101 10.5348H7.59004C10.9867 10.5348 13.6464 9.15518 14.4233 5.16414C14.4464 5.04611 14.4663 4.93123 14.4836 4.81897C14.7144 3.34384 14.482 2.33978 13.6841 1.43068" fill="#003087"/>
<path d="M58.227 8.83657C58.0045 10.297 56.8893 10.297 55.8107 10.297H55.197L55.6276 7.57022C55.6539 7.4055 55.7955 7.28432 55.9623 7.28432H56.244C56.9784 7.28432 57.6719 7.28433 58.0297 7.70242C58.2432 7.95265 58.3077 8.32405 58.227 8.83657ZM57.7575 5.02599H53.6888C53.554 5.02606 53.4237 5.07415 53.3212 5.16164C53.2187 5.24913 53.1508 5.37029 53.1296 5.50336L51.4855 15.9358C51.478 15.9841 51.4809 16.0336 51.4943 16.0807C51.5076 16.1278 51.531 16.1714 51.5628 16.2087C51.5946 16.2459 51.634 16.2758 51.6785 16.2963C51.7229 16.3169 51.7713 16.3275 51.8202 16.3276H53.9081C54.1027 16.3276 54.2684 16.186 54.2989 15.994L54.7658 13.0353C54.8088 12.761 55.0459 12.558 55.3239 12.558H56.6112C59.2919 12.558 60.8383 11.2617 61.2423 8.69074C61.4243 7.56708 61.2496 6.68368 60.7235 6.06519C60.1448 5.38533 59.1193 5.02547 57.758 5.02547" fill="#009CDE"/>
<path d="M29.207 8.8367C28.9846 10.2971 27.8693 10.2971 26.7903 10.2971H26.1765L26.6072 7.57036C26.6334 7.40564 26.7751 7.28446 26.9419 7.28446H27.2236C27.958 7.28446 28.6515 7.28446 29.0093 7.70255C29.2233 7.95278 29.2878 8.32419 29.207 8.8367ZM28.7375 5.02612H24.6688C24.3908 5.02612 24.1537 5.22861 24.1102 5.5035L22.4656 15.9359C22.4579 15.9843 22.4609 16.0337 22.4742 16.0809C22.4875 16.128 22.5108 16.1717 22.5426 16.209C22.5744 16.2462 22.6139 16.2761 22.6584 16.2966C22.7029 16.3171 22.7513 16.3278 22.8003 16.3278H24.7433C25.0214 16.3278 25.258 16.1253 25.3015 15.8504L25.7458 13.036C25.7888 12.7611 26.0259 12.5586 26.304 12.5586H27.5913C30.2719 12.5586 31.8184 11.2619 32.2223 8.69087C32.4044 7.56721 32.2297 6.68381 31.7035 6.06532C31.1249 5.38546 30.0993 5.0256 28.7381 5.0256M38.1837 12.5822C37.9949 13.6954 37.112 14.4429 35.9847 14.4429C35.4197 14.4429 34.967 14.2609 34.6763 13.9168C34.3878 13.5758 34.2798 13.0895 34.371 12.5487C34.5463 11.4449 35.4443 10.6738 36.5544 10.6738C37.1078 10.6738 37.5563 10.8574 37.8532 11.2047C38.1517 11.5546 38.2692 12.0435 38.1837 12.5822ZM40.899 8.78949H38.9507C38.8697 8.7894 38.7913 8.81827 38.7297 8.87089C38.6682 8.92351 38.6274 8.99642 38.6149 9.07644L38.5299 9.62096L38.3936 9.42372C37.9718 8.81153 37.0312 8.60641 36.0922 8.60641C33.9398 8.60641 32.1012 10.2379 31.7434 12.5251C31.5572 13.6671 31.8216 14.7577 32.4689 15.5189C33.0632 16.2181 33.9115 16.5093 34.9224 16.5093C36.6577 16.5093 37.6198 15.3951 37.6198 15.3951L37.5327 15.9364C37.525 15.9849 37.528 16.0344 37.5413 16.0815C37.5546 16.1287 37.578 16.1724 37.6099 16.2097C37.6418 16.247 37.6813 16.2769 37.7259 16.2973C37.7704 16.3178 37.8189 16.3284 37.8679 16.3283H39.6221C39.9002 16.3283 40.1373 16.1263 40.1808 15.8509L41.2342 9.18188C41.2418 9.13343 41.2387 9.08391 41.2254 9.03673C41.212 8.98955 41.1885 8.94584 41.1566 8.9086C41.1247 8.87135 41.0851 8.84147 41.0405 8.821C40.996 8.80053 40.9475 8.78996 40.8984 8.79002" fill="#003087"/>
<path d="M67.2037 12.5822C67.0148 13.6954 66.132 14.4429 65.0046 14.4429C64.4396 14.4429 63.9869 14.2609 63.6963 13.9168C63.4078 13.5758 63.2997 13.0895 63.391 12.5487C63.5662 11.4449 64.4638 10.6738 65.5743 10.6738C66.1278 10.6738 66.5763 10.8574 66.8732 11.2047C67.1717 11.5546 67.2892 12.0435 67.2037 12.5822ZM69.9189 8.78949H67.9706C67.8896 8.7894 67.8113 8.81826 67.7497 8.87089C67.6881 8.92351 67.6474 8.99642 67.6349 9.07644L67.5499 9.62096L67.4135 9.42371C66.9917 8.81152 66.0512 8.60641 65.1122 8.60641C62.9603 8.60641 61.1216 10.2379 60.7634 12.5251C60.5771 13.6671 60.842 14.7577 61.4894 15.5189C62.0837 16.2181 62.932 16.5093 63.9429 16.5093C65.6787 16.5093 66.6408 15.3951 66.6408 15.3951L66.5537 15.9364C66.5459 15.9848 66.5487 16.0343 66.5619 16.0815C66.575 16.1286 66.5983 16.1724 66.6301 16.2097C66.6619 16.2469 66.7014 16.2769 66.7459 16.2974C66.7905 16.3178 66.8389 16.3284 66.8879 16.3283H68.6416C68.9196 16.3283 69.1567 16.1263 69.2008 15.8509L70.2541 9.18188C70.2617 9.13343 70.2587 9.08391 70.2453 9.03673C70.2319 8.98955 70.2085 8.94584 70.1766 8.9086C70.1446 8.87135 70.105 8.84147 70.0605 8.821C70.0159 8.80053 69.9674 8.78996 69.9184 8.79002" fill="#009CDE"/>
<path d="M51.276 8.79H49.3172C49.13 8.79 48.9553 8.88285 48.8504 9.03813L46.1488 13.0166L45.0036 9.19341C44.9686 9.0768 44.8971 8.97454 44.7995 8.90179C44.7019 8.82903 44.5834 8.78965 44.4617 8.78948H42.537C42.483 8.7895 42.4298 8.8024 42.3818 8.8271C42.3339 8.8518 42.2925 8.88758 42.2611 8.93149C42.2297 8.97539 42.2092 9.02615 42.2014 9.07955C42.1935 9.13294 42.1985 9.18744 42.2159 9.23852L44.372 15.5682L42.3439 18.4298C42.3081 18.4806 42.2869 18.5402 42.2827 18.6022C42.2784 18.6643 42.2913 18.7263 42.3199 18.7815C42.3484 18.8367 42.3916 18.883 42.4447 18.9153C42.4978 18.9476 42.5588 18.9648 42.6209 18.9648H44.5776C44.7623 18.9648 44.9359 18.8741 45.0419 18.722L51.5541 9.32246C51.5894 9.27165 51.6102 9.21212 51.6141 9.15035C51.618 9.08857 51.605 9.0269 51.5763 8.97203C51.5477 8.91716 51.5045 8.87118 51.4516 8.83909C51.3987 8.807 51.3379 8.79003 51.276 8.79Z" fill="#003087"/>
<path d="M72.2154 5.3129L70.5451 15.9363C70.5375 15.9847 70.5405 16.0341 70.5539 16.0813C70.5672 16.1284 70.5907 16.1721 70.6225 16.2093C70.6544 16.2466 70.6939 16.2765 70.7384 16.297C70.7829 16.3175 70.8313 16.3281 70.8803 16.3281H72.5595C72.8375 16.3281 73.0746 16.1256 73.1182 15.8508L74.7649 5.41781C74.7725 5.36939 74.7696 5.31988 74.7563 5.2727C74.7429 5.22553 74.7195 5.1818 74.6877 5.14455C74.6558 5.10729 74.6162 5.0774 74.5717 5.05692C74.5271 5.03645 74.4787 5.02588 74.4296 5.02595H72.5506C72.4697 5.02574 72.3914 5.05452 72.3299 5.10707C72.2684 5.15961 72.2278 5.23297 72.2154 5.3129Z" fill="#009CDE"/>
<path d="M13.6836 1.43015C12.8055 0.429245 11.2181 0.000132916 9.1874 0.000132916H3.29369C3.09267 2.59096e-05 2.89821 0.0716693 2.7453 0.202168C2.5924 0.332667 2.49109 0.513452 2.4596 0.711994L0.00664785 16.2769C-0.00472615 16.3491 -0.000311499 16.423 0.0195879 16.4933C0.0394873 16.5636 0.0743984 16.6288 0.121916 16.6844C0.169433 16.7399 0.228427 16.7845 0.294833 16.815C0.36124 16.8456 0.43348 16.8614 0.506577 16.8613H4.14509L5.05892 11.0652L5.03059 11.2467C5.06147 11.0486 5.16211 10.868 5.31436 10.7374C5.46661 10.6069 5.66047 10.5351 5.86101 10.5348H7.59004C10.9867 10.5348 13.6464 9.15518 14.4233 5.16414C14.4464 5.04611 14.4663 4.93123 14.4836 4.81897C14.7144 3.34384 14.482 2.33978 13.6841 1.43068" fill="#003087"/>
<path d="M6.04054 4.83841C6.06811 4.66493 6.15661 4.50695 6.29015 4.39284C6.42369 4.27872 6.59353 4.21592 6.76919 4.21573H11.3897C11.9369 4.21573 12.4473 4.2514 12.9136 4.32589C13.1686 4.36691 13.4209 4.42332 13.669 4.49481C13.9509 4.57404 14.2236 4.68271 14.4827 4.819C14.7145 3.34335 14.4816 2.33982 13.6837 1.43019C12.8051 0.429807 11.2182 0.000695228 9.18752 0.000695228H3.29329C3.09245 0.00083797 2.89824 0.072593 2.74555 0.20307C2.59286 0.333546 2.4917 0.514194 2.46025 0.712558L0.00624246 16.2759C-0.00520852 16.3481 -0.000869298 16.422 0.0189614 16.4923C0.0387921 16.5627 0.0736426 16.6279 0.121111 16.6835C0.16858 16.7391 0.227539 16.7837 0.293924 16.8144C0.360309 16.845 0.432542 16.8608 0.505647 16.8608H4.14469L5.05852 11.0642L6.04054 4.83841Z" fill="#003087"/>
<path d="M14.483 4.81837C14.465 4.93379 14.4448 5.04887 14.4226 5.16355C13.6457 9.15406 10.9861 10.5342 7.5894 10.5342H5.85985C5.65934 10.5344 5.46549 10.6062 5.31331 10.7368C5.16112 10.8673 5.06062 11.048 5.02995 11.2461L4.14446 16.8602L3.89266 18.4528C3.88264 18.5161 3.88646 18.5807 3.90385 18.6423C3.92123 18.7039 3.95177 18.7611 3.99336 18.8097C4.03495 18.8584 4.08659 18.8975 4.14474 18.9242C4.20288 18.951 4.26614 18.9649 4.33016 18.9648H7.39741C7.76042 18.9648 8.06887 18.7005 8.12605 18.3422L8.15595 18.1858L8.73405 14.5221L8.77077 14.3196C8.79825 14.146 8.8868 13.9879 9.02047 13.8738C9.15414 13.7596 9.32416 13.6969 9.49994 13.697H9.95895C12.9302 13.697 15.2567 12.4904 15.9366 8.99879C16.2199 7.54044 16.073 6.32183 15.3228 5.46624C15.0846 5.20097 14.8 4.98142 14.483 4.81837Z" fill="#009CDE"/>
<path d="M13.6697 4.49469C13.5511 4.45954 13.4289 4.42807 13.303 4.40027C13.1771 4.37246 13.047 4.34781 12.9137 4.32683C12.4468 4.25076 11.937 4.21509 11.3893 4.21509H6.76927C6.59342 4.21487 6.42329 4.27759 6.28965 4.39189C6.15601 4.50619 6.06768 4.66453 6.04062 4.83829L5.0586 11.0651L5.03027 11.2461C5.06094 11.0479 5.16144 10.8673 5.31362 10.7367C5.46581 10.6062 5.65966 10.5344 5.86017 10.5342H7.58972C10.9864 10.5342 13.646 9.15457 14.423 5.16354C14.446 5.0455 14.4654 4.93115 14.4833 4.81836C14.2781 4.711 14.0644 4.62082 13.8443 4.54872C13.7872 4.52984 13.7289 4.51253 13.6697 4.49469Z" fill="#012169"/>
</svg>
